<?xml version="1.0" encoding="UTF-8"?>
<svg width="16px" height="15px" viewBox="0 0 16 15" version="1.1" xmlns="http://www.w3.org/2000/svg" xmlns:xlink="http://www.w3.org/1999/xlink">
    <!-- Generator: sketchtool 55.1 (78136) - https://sketchapp.com -->
    <title>F2D099DC-4584-4DFE-B437-44E37797C798</title>
    <desc>Created with sketchtool.</desc>
    <defs>
        <path d="M12.3639043,4.92067972 C12.3016227,4.88941115 12.2442984,4.84972231 12.1934252,4.80310692 L8,1.91106457 L1.17585858,6.61740959 C0.834875623,6.85257228 0.367818936,6.76678562 0.132658274,6.42579972 C-0.102502387,6.08481382 -0.0167164653,5.6177531 0.324266494,5.38259041 L7.57420396,0.382590411 C7.83054321,0.205803196 8.16945679,0.205803196 8.42579604,0.382590411 L11.9499659,2.81307336 L11.9499659,0.749993531 C11.9499659,0.335783541 12.2857495,1.42869439e-14 12.6999595,1.42108547e-14 C13.1141694,1.41347656e-14 13.449953,0.335783541 13.449953,0.749993531 L13.449953,3.84755612 L15.6757335,5.38259041 C16.0167165,5.6177531 16.1025024,6.08481382 15.8673417,6.42579972 C15.6321811,6.76678562 15.1651244,6.85257228 14.8241414,6.61740959 L12.3639043,4.92067973 Z M9.94998318,15 L9.94998318,11 C9.94998318,10.4477153 9.50226793,10 8.94998318,10 L6.95001768,10 C6.39773293,10 5.95001768,10.4477153 5.95001768,11 L5.95001768,15 L2.95005219,15 C2.39776744,15 1.95005219,14.5522847 1.95005219,14 L1.95005219,7.4 L7.95000043,3.4 L13.9499487,7.4 L13.9499487,14 C13.9499487,14.5522847 13.5022334,15 12.9499487,15 L9.94998318,15 Z" id="path-1"></path>
    </defs>
    <g id="UI-Kit-v2.0.1" stroke="none" stroke-width="1" fill="none" fill-rule="evenodd">
        <g id="Iconography" transform="translate(-834.000000, -1623.000000)">
            <g id="Icons" transform="translate(145.000000, 1348.000000)">
                <g id="Filled" transform="translate(4.000000, 104.000000)">
                    <g id="Filled-Icons" transform="translate(0.000000, 67.000000)">
                        <g id="Icons/Filled/Home" transform="translate(685.000000, 104.000000)">
                            <g id="Color/Vivid-blue">
                                <mask id="mask-2" fill="white">
                                    <use xlink:href="#path-1"></use>
                                </mask>
                                <use id="Mask" fill="#006AEB" fill-rule="nonzero" xlink:href="#path-1"></use>
                                <g mask="url(#mask-2)" fill="#006AEB" fill-rule="nonzero" id="Rectangle">
                                    <rect x="0" y="0" width="16" height="15"></rect>
                                </g>
                            </g>
                        </g>
                    </g>
                </g>
            </g>
        </g>
    </g>
</svg>
