<svg width="18" height="14" xmlns="http://www.w3.org/2000/svg" xmlns:xlink="http://www.w3.org/1999/xlink"><defs><path d="M5.83 14a1.186 1.186 0 0 1-.863-.403L.288 8.244a1.157 1.157 0 0 1-.285-.849 1.174 1.174 0 0 1 1.173-1.087c.341 0 .664.147.888.404l3.824 4.373L15.966.371A1.178 1.178 0 0 1 18 1.13a1.15 1.15 0 0 1-.318.837L6.715 13.628a1.183 1.183 0 0 1-.86.372h-.024Z" id="a"/></defs><g fill="none" fill-rule="evenodd"><mask id="b" fill="#fff"><use xlink:href="#a"/></mask><use fill="#006AEB" xlink:href="#a"/><g mask="url(#b)" fill="#006AEB" fill-rule="nonzero"><path d="M0 0h18v14H0z"/></g></g></svg>