<?xml version="1.0" encoding="UTF-8"?>
<svg width="24px" height="24px" viewBox="0 0 24 24" version="1.1" xmlns="http://www.w3.org/2000/svg" xmlns:xlink="http://www.w3.org/1999/xlink">
    <!-- Generator: Sketch 61.1 (89650) - https://sketch.com -->
    <title>Fill 1</title>
    <desc>Created with Sketch.</desc>
    <g id="Page-1" stroke="none" stroke-width="1" fill="none" fill-rule="evenodd">
        <g id="Filo-Desktop-Chat" transform="translate(-1037.000000, -1196.000000)" fill="#006AEB" fill-rule="nonzero">
            <g id="Group-2" transform="translate(1013.000000, 826.000000)">
                <path d="M31.0335276,376.810389 C31.4244458,376.428726 32.0563135,376.428726 32.4472317,376.810389 C32.8381498,377.192052 32.8381498,377.80896 32.4472317,378.190622 C30.4896415,380.101865 30.4896415,383.213736 32.4472317,385.124979 C34.4048219,387.035245 37.590155,387.037197 39.548745,385.124979 C41.5063352,383.213736 41.5063352,380.101865 39.548745,378.190622 C39.1578269,377.80896 39.1578269,377.192052 39.548745,376.810389 C39.9386634,376.428726 40.5715309,376.428726 40.9624491,376.810389 C43.6988762,379.483005 43.6988762,383.83162 40.9624491,386.505212 C39.5937356,387.84152 37.7961119,388.509186 35.9974885,388.509186 C34.1998648,388.509186 32.4022411,387.84152 31.0335276,386.505212 C28.2961007,383.83162 28.2961007,379.483005 31.0335276,376.810389 L31.0335276,376.810389 Z M34.9976977,375.541433 C34.9976977,375.001639 35.445604,374.565313 35.9974885,374.565313 C36.5503727,374.565313 36.9972792,375.001639 36.9972792,375.541433 L36.9972792,380.887642 C36.9972792,381.42646 36.5503727,381.863762 35.9974885,381.863762 C35.445604,381.863762 34.9976977,381.42646 34.9976977,380.887642 L34.9976977,375.541433 Z M43.9258287,390.489734 C45.171568,392.62158 48.1384295,394 47.9949769,394 L47.9949769,381.713439 C47.9949769,375.244692 42.6241012,370 35.9974885,370 C29.3718755,370 24,375.244692 24,381.713439 C24,388.183162 29.3718755,393.426879 35.9974885,393.426879 C39.0408514,393.426879 41.8102716,392.313126 43.9258287,390.489734 L43.9258287,390.489734 Z" id="Fill-1"></path>
            </g>
        </g>
    </g>
</svg>
