<?xml version="1.0" encoding="UTF-8"?>
<svg width="788px" height="545px" viewBox="0 0 788 545" version="1.1" xmlns="http://www.w3.org/2000/svg" xmlns:xlink="http://www.w3.org/1999/xlink">
    <!-- Generator: Sketch 59 (86127) - https://sketch.com -->
    <title>confetti copy</title>
    <desc>Created with Sketch.</desc>
    <g id="Landing-page---Deals" stroke="none" stroke-width="1" fill="none" fill-rule="evenodd">
        <g id="confetti-copy">
            <path d="M569.696532,193.523932 C568.302475,191.064822 568.057852,189.718237 568.090272,186.641386 C568.131533,182.809026 567.749862,180.699524 565.879822,177.400465 C564.008308,174.098443 562.397627,172.691121 559.098163,170.772719 C556.44415,169.229108 555.415554,168.329904 554.01855,165.866349 C552.621546,163.401313 552.375449,162.050284 552.406395,158.967508 C552.44471,155.133666 552.060092,153.024165 550.188578,149.720661 C548.31559,146.415676 546.704909,145.006873 543.405445,143.085508 C540.748485,141.538935 539.718415,140.638249 538.321411,138.173213 C537.689222,137.059206 536.276008,136.6696 535.167836,137.305117 C534.058191,137.940634 533.672099,139.361289 534.302814,140.476777 C536.177275,143.778799 537.787956,145.187602 541.085947,147.107486 L541.088894,147.108968 C543.742907,148.652578 544.772976,149.554745 546.16998,152.021262 C547.566985,154.486298 547.811608,155.835846 547.782135,158.918622 C547.74382,162.752464 548.128439,164.863447 550.001426,168.168432 C551.87294,171.468973 553.482147,172.876295 556.781612,174.796178 C559.435625,176.339789 560.464221,177.238993 561.862698,179.701066 C563.255282,182.161658 563.499905,183.508243 563.466011,186.586575 C563.424749,190.418935 563.807894,192.528437 565.677934,195.826015 C566.310123,196.941503 567.721863,197.329628 568.831509,196.695592 C569.941155,196.058594 570.32872,194.63942 569.696532,193.523932" id="Fill-1" fill="#C8A06D"></path>
            <path d="M270.696532,465.523932 C269.302475,463.064822 269.057852,461.718237 269.090272,458.641386 C269.131533,454.809026 268.749862,452.699524 266.879822,449.400465 C265.008308,446.098443 263.397627,444.691121 260.098163,442.772719 C257.44415,441.229108 256.415554,440.329904 255.01855,437.866349 C253.621546,435.401313 253.375449,434.050284 253.406395,430.967508 C253.44471,427.133666 253.060092,425.024165 251.188578,421.720661 C249.31559,418.415676 247.704909,417.006873 244.405445,415.085508 C241.748485,413.538935 240.718415,412.638249 239.321411,410.173213 C238.689222,409.059206 237.276008,408.6696 236.167836,409.305117 C235.058191,409.940634 234.672099,411.361289 235.302814,412.476777 C237.177275,415.778799 238.787956,417.187602 242.085947,419.107486 L242.088894,419.108968 C244.742907,420.652578 245.772976,421.554745 247.16998,424.021262 C248.566985,426.486298 248.811608,427.835846 248.782135,430.918622 C248.74382,434.752464 249.128439,436.863447 251.001426,440.168432 C252.87294,443.468973 254.482147,444.876295 257.781612,446.796178 C260.435625,448.339789 261.464221,449.238993 262.862698,451.701066 C264.255282,454.161658 264.499905,455.508243 264.466011,458.586575 C264.424749,462.418935 264.807894,464.528437 266.677934,467.826015 C267.310123,468.941503 268.721863,469.329628 269.831509,468.695592 C270.941155,468.058594 271.32872,466.63942 270.696532,465.523932" id="Fill-1-Copy" fill-opacity="0.5" fill="#FFFFFF" transform="translate(253.000000, 439.000000) rotate(40.000000) translate(-253.000000, -439.000000) "></path>
            <path d="M57.6928551,46.6010353 C56.97124,46.251469 56.4837817,45.9225521 56.1701001,45.605435 C55.7253496,45.1555711 55.5913353,44.7632308 55.3630694,43.2395935 C54.8829745,40.0212232 54.2541385,38.1376948 52.2733789,35.4517863 C51.6239253,34.5697581 50.763878,33.8234266 49.5680588,33.0048218 C49.1984152,32.7511281 48.8110994,32.5003843 48.2853513,32.1699925 C48.3766577,32.2275161 47.3030712,31.5549327 47.0158979,31.3720372 C44.5182262,29.7790767 43.3091529,28.6271302 42.7834048,27.140367 C42.4623597,26.2317895 42.6405545,25.1550661 43.606635,21.7420006 C44.5417892,18.4395573 44.8672523,16.5884781 44.6095326,14.4011073 C44.3856847,12.5057792 43.8319556,11.3936567 41.8438326,8.1059631 C40.1502462,5.30353246 39.5597001,3.89199239 39.6289162,2.42145379 C39.6878235,1.14561037 38.7025981,0.0615122017 37.427254,0.00251366194 C36.1533826,-0.0564848778 35.07096,0.930265699 35.0120526,2.20610912 C34.8868745,4.9097172 35.7292496,6.92746726 37.8911494,10.5027788 C39.4728117,13.120839 39.9072534,13.9910674 40.0191774,14.9438939 C40.1826453,16.3303595 39.9337617,17.7477995 39.1606028,20.4794318 C37.8793679,25.0031449 37.6393205,26.4574589 38.4272063,28.6861287 C39.3947595,31.420711 41.2282507,33.1685428 44.5344258,35.2762656 C44.8392713,35.4724358 45.934948,36.1568188 45.8259694,36.0889705 C46.307537,36.391338 46.6491996,36.6140575 46.9614086,36.8264522 C47.7654939,37.3780886 48.2735698,37.8176277 48.5548524,38.2011182 C50.0083913,40.1701945 50.4133793,41.3870394 50.7933317,43.9254515 C51.1585573,46.3635662 51.5473458,47.5110878 52.8904333,48.8665792 C53.604685,49.5863614 54.5192216,50.2058461 55.6841144,50.7692821 C56.8342804,51.3253434 58.2141851,50.8415554 58.7693869,49.6910838 C59.3245886,48.5391373 58.8430211,47.1556216 57.6928551,46.6010353" id="Fill-5" fill="#C8A06D" opacity="0.498465402"></path>
            <path d="M775.692855,353.601035 C774.97124,353.251469 774.483782,352.922552 774.1701,352.605435 C773.72535,352.155571 773.591335,351.763231 773.363069,350.239594 C772.882974,347.021223 772.254138,345.137695 770.273379,342.451786 C769.623925,341.569758 768.763878,340.823427 767.568059,340.004822 C767.198415,339.751128 766.811099,339.500384 766.285351,339.169992 C766.376658,339.227516 765.303071,338.554933 765.015898,338.372037 C762.518226,336.779077 761.309153,335.62713 760.783405,334.140367 C760.46236,333.231789 760.640554,332.155066 761.606635,328.742001 C762.541789,325.439557 762.867252,323.588478 762.609533,321.401107 C762.385685,319.505779 761.831956,318.393657 759.843833,315.105963 C758.150246,312.303532 757.5597,310.891992 757.628916,309.421454 C757.687824,308.14561 756.702598,307.061512 755.427254,307.002514 C754.153383,306.943515 753.07096,307.930266 753.012053,309.206109 C752.886875,311.909717 753.72925,313.927467 755.891149,317.502779 C757.472812,320.120839 757.907253,320.991067 758.019177,321.943894 C758.182645,323.33036 757.933762,324.747799 757.160603,327.479432 C755.879368,332.003145 755.63932,333.457459 756.427206,335.686129 C757.394759,338.420711 759.228251,340.168543 762.534426,342.276266 C762.839271,342.472436 763.934948,343.156819 763.825969,343.08897 C764.307537,343.391338 764.6492,343.614057 764.961409,343.826452 C765.765494,344.378089 766.27357,344.817628 766.554852,345.201118 C768.008391,347.170194 768.413379,348.387039 768.793332,350.925452 C769.158557,353.363566 769.547346,354.511088 770.890433,355.866579 C771.604685,356.586361 772.519222,357.205846 773.684114,357.769282 C774.83428,358.325343 776.214185,357.841555 776.769387,356.691084 C777.324589,355.539137 776.843021,354.155622 775.692855,353.601035" id="Fill-5-Copy" fill="#C8A06D" opacity="0.498465402" transform="translate(765.000000, 332.500000) rotate(-30.000000) translate(-765.000000, -332.500000) "></path>
            <path d="M338.123598,364.614741 C337.924475,364.797753 337.48377,365.152339 336.832229,365.595571 C335.719484,366.347636 334.453005,367.021064 333.065002,367.534355 C328.428078,369.248664 323.608136,368.829738 318.65203,365.293887 C317.628598,364.563269 316.192278,364.780595 315.44264,365.780013 C314.694466,366.78229 314.917014,368.184906 315.941911,368.916955 C322.220134,373.396462 328.66966,373.956936 334.690195,371.730766 C337.716568,370.611246 339.968412,369.088528 341.283207,367.871784 C342.20415,367.021064 342.242218,365.59986 341.371056,364.700528 C340.49843,363.801195 339.044541,363.762591 338.123598,364.614741" id="Fill-9" fill="#FFFFFF" transform="translate(328.500000, 368.500000) rotate(40.000000) translate(-328.500000, -368.500000) "></path>
            <path d="M300.517323,78.6448743 C300.517323,78.3662151 300.553311,77.7819298 300.669914,76.978912 C300.868571,75.6095869 301.229897,74.1818333 301.791319,72.7795485 C303.664165,68.0947787 307.221278,64.8092974 313.153638,63.6631993 C314.380129,63.4249906 315.189153,62.1979914 314.961705,60.9215527 C314.734257,59.645114 313.555271,58.8031439 312.32878,59.0398544 C304.812921,60.4930768 300.050911,64.8901984 297.619521,70.9742567 C296.398788,74.0290202 295.995716,76.8021283 296,78.6553615 C296.002913,79.9542727 297.016352,81.0029899 298.262997,81 C299.511082,80.9969973 300.520202,79.9422873 300.517323,78.6448743" id="Fill-11" fill="#C8A06D"></path>
            <path d="M716.517323,192.644874 C716.517323,192.366215 716.553311,191.78193 716.669914,190.978912 C716.868571,189.609587 717.229897,188.181833 717.791319,186.779549 C719.664165,182.094779 723.221278,178.809297 729.153638,177.663199 C730.380129,177.424991 731.189153,176.197991 730.961705,174.921553 C730.734257,173.645114 729.555271,172.803144 728.32878,173.039854 C720.812921,174.493077 716.050911,178.890198 713.619521,184.974257 C712.398788,188.02902 711.995716,190.802128 712,192.655361 C712.002913,193.954273 713.016352,195.00299 714.262997,195 C715.511082,194.996997 716.520202,193.942287 716.517323,192.644874" id="Fill-11-Copy" fill="#FFFFFF" opacity="0.501534598"></path>
            <path d="M356.517323,542.644874 C356.517323,542.366215 356.553311,541.78193 356.669914,540.978912 C356.868571,539.609587 357.229897,538.181833 357.791319,536.779549 C359.664165,532.094779 363.221278,528.809297 369.153638,527.663199 C370.380129,527.424991 371.189153,526.197991 370.961705,524.921553 C370.734257,523.645114 369.555271,522.803144 368.32878,523.039854 C360.812921,524.493077 356.050911,528.890198 353.619521,534.974257 C352.398788,538.02902 351.995716,540.802128 352,542.655361 C352.002913,543.954273 353.016352,545.00299 354.262997,545 C355.511082,544.996997 356.520202,543.942287 356.517323,542.644874" id="Fill-11-Copy-2" fill="#C8A06D"></path>
            <path d="M483,37.5 C483,41.0893779 480.089378,44 476.5,44 C472.913541,44 470,41.0893779 470,37.5 C470,33.9120817 472.913541,31 476.5,31 C480.089378,31 483,33.9120817 483,37.5" id="Fill-18" fill="#C8A06D"></path>
            <path d="M173,501.5 C173,505.089378 170.089378,508 166.5,508 C162.913541,508 160,505.089378 160,501.5 C160,497.912082 162.913541,495 166.5,495 C170.089378,495 173,497.912082 173,501.5" id="Fill-18-Copy" fill="#C8A06D"></path>
            <polygon id="Fill-20" fill="#C8A06D" points="12 198.268662 1.71538068 207 0 195"></polygon>
            <polygon id="Fill-22" fill="#C8A06D" points="12.4736842 413 0.473684211 406.513314 11.6533566 401"></polygon>
            <polygon id="Fill-24" fill="#C8A06D" points="741 62.4027084 748.76401 52 753 63"></polygon>
            <polygon id="Fill-26" fill="#C8A06D" opacity="0.498465402" points="421 413 409 406.514793 420.179672 401"></polygon>
            <polygon id="Fill-28" fill="#FFFFFF" points="143 57 131 50.5147929 142.179672 45"></polygon>
            <polygon id="Fill-32" fill="#C8A06D" points="686 364 674 357.514793 685.179672 352"></polygon>
            <path d="M575,473.5 C575,477.089378 572.089378,480 568.5,480 C564.913541,480 562,477.089378 562,473.5 C562,469.910622 564.913541,467 568.5,467 C572.089378,467 575,469.910622 575,473.5" id="Fill-34" fill="#FFFFFF"></path>
            <path d="M639,92.5 C639,96.0893779 636.089378,99 632.5,99 C628.913541,99 626,96.0893779 626,92.5 C626,88.9106221 628.913541,86 632.5,86 C636.089378,86 639,88.9106221 639,92.5" id="Fill-34-Copy" fill="#FFFFFF"></path>
            <path d="M775,483.5 C775,487.089378 772.089378,490 768.5,490 C764.913541,490 762,487.089378 762,483.5 C762,479.910622 764.913541,477 768.5,477 C772.089378,477 775,479.910622 775,483.5" id="Fill-34-Copy-2" fill="#FFFFFF"></path>
        </g>
    </g>
</svg>