<?xml version="1.0" encoding="UTF-8"?>
<svg width="377px" height="493px" viewBox="0 0 377 493" version="1.1" xmlns="http://www.w3.org/2000/svg" xmlns:xlink="http://www.w3.org/1999/xlink">
    <!-- Generator: Sketch 59 (86127) - https://sketch.com -->
    <title>confetti copy</title>
    <desc>Created with Sketch.</desc>
    <g id="Landing-page---Deals" stroke="none" stroke-width="1" fill="none" fill-rule="evenodd">
        <g id="confetti-copy">
            <path d="M350.696532,56.5239323 C349.302475,54.0648221 349.057852,52.7182371 349.090272,49.6413865 C349.131533,45.8090262 348.749862,43.6995244 346.879822,40.400465 C345.008308,37.0984429 343.397627,35.6911208 340.098163,33.7727186 C337.44415,32.2291084 336.415554,31.3299036 335.01855,28.8663492 C333.621546,26.4013135 333.375449,25.0502842 333.406395,21.9675081 C333.44471,18.1336664 333.060092,16.0241646 331.188578,12.7206611 C329.31559,9.41567619 327.704909,8.00687268 324.405445,6.08550764 C321.748485,4.5389347 320.718415,3.63824855 319.321411,1.17321275 C318.689222,0.0592061941 317.276008,-0.330399824 316.167836,0.305117217 C315.058191,0.940634257 314.672099,2.3612889 315.302814,3.47677685 C317.177275,6.77879896 318.787956,8.18760247 322.085947,10.1074861 L322.088894,10.1089675 C324.742907,11.6525777 325.772976,12.5547452 327.16998,15.0212624 C328.566985,17.4862982 328.811608,18.835846 328.782135,21.9186222 C328.74382,25.7524639 329.128439,27.8634471 331.001426,31.168432 C332.87294,34.4689727 334.482147,35.8762948 337.781612,37.7961784 C340.435625,39.3397886 341.464221,40.2389933 342.862698,42.7010664 C344.255282,45.161658 344.499905,46.508243 344.466011,49.586575 C344.424749,53.4189353 344.807894,55.5284371 346.677934,58.826015 C347.310123,59.941503 348.721863,60.3296276 349.831509,59.695592 C350.941155,59.0585935 351.32872,57.6394203 350.696532,56.5239323" id="Fill-1" fill="#C8A06D"></path>
            <path d="M315.696532,371.523932 C314.302475,369.064822 314.057852,367.718237 314.090272,364.641386 C314.131533,360.809026 313.749862,358.699524 311.879822,355.400465 C310.008308,352.098443 308.397627,350.691121 305.098163,348.772719 C302.44415,347.229108 301.415554,346.329904 300.01855,343.866349 C298.621546,341.401313 298.375449,340.050284 298.406395,336.967508 C298.44471,333.133666 298.060092,331.024165 296.188578,327.720661 C294.31559,324.415676 292.704909,323.006873 289.405445,321.085508 C286.748485,319.538935 285.718415,318.638249 284.321411,316.173213 C283.689222,315.059206 282.276008,314.6696 281.167836,315.305117 C280.058191,315.940634 279.672099,317.361289 280.302814,318.476777 C282.177275,321.778799 283.787956,323.187602 287.085947,325.107486 L287.088894,325.108968 C289.742907,326.652578 290.772976,327.554745 292.16998,330.021262 C293.566985,332.486298 293.811608,333.835846 293.782135,336.918622 C293.74382,340.752464 294.128439,342.863447 296.001426,346.168432 C297.87294,349.468973 299.482147,350.876295 302.781612,352.796178 C305.435625,354.339789 306.464221,355.238993 307.862698,357.701066 C309.255282,360.161658 309.499905,361.508243 309.466011,364.586575 C309.424749,368.418935 309.807894,370.528437 311.677934,373.826015 C312.310123,374.941503 313.721863,375.329628 314.831509,374.695592 C315.941155,374.058594 316.32872,372.63942 315.696532,371.523932" id="Fill-1-Copy" fill-opacity="0.5" fill="#FFFFFF" transform="translate(298.000000, 345.000000) rotate(50.000000) translate(-298.000000, -345.000000) "></path>
            <path d="M142,23.5 C142,27.0893779 139.089378,30 135.5,30 C131.913541,30 129,27.0893779 129,23.5 C129,19.9106221 131.913541,17 135.5,17 C139.089378,17 142,19.9106221 142,23.5" id="Fill-34-Copy" fill-opacity="0.5" fill="#FFFFFF"></path>
            <path d="M43.5173227,43.6448743 C43.5173227,43.3662151 43.5533113,42.7819298 43.6699143,41.978912 C43.8685714,40.6095869 44.2298969,39.1818333 44.791319,37.7795485 C46.6641654,33.0947787 50.2212782,29.8092974 56.1536381,28.6631993 C57.3801295,28.4249906 58.1891531,27.1979914 57.9617052,25.9215527 C57.7342572,24.645114 56.5552709,23.8031439 55.3287796,24.0398544 C47.8129214,25.4930768 43.0509105,29.8901984 40.619521,35.9742567 C39.3987879,39.0290202 38.9957156,41.8021283 39,43.6553615 C39.0029134,44.9542727 40.0163522,46.0029899 41.2629971,46 C42.5110816,45.9969973 43.5202018,44.9422873 43.5173227,43.6448743" id="Fill-11" fill="#C8A06D"></path>
            <path d="M162.517323,420.644874 C162.517323,420.366215 162.553311,419.78193 162.669914,418.978912 C162.868571,417.609587 163.229897,416.181833 163.791319,414.779549 C165.664165,410.094779 169.221278,406.809297 175.153638,405.663199 C176.380129,405.424991 177.189153,404.197991 176.961705,402.921553 C176.734257,401.645114 175.555271,400.803144 174.32878,401.039854 C166.812921,402.493077 162.050911,406.890198 159.619521,412.974257 C158.398788,416.02902 157.995716,418.802128 158,420.655361 C158.002913,421.954273 159.016352,423.00299 160.262997,423 C161.511082,422.996997 162.520202,421.942287 162.517323,420.644874" id="Fill-11-Copy-2" fill="#C8A06D"></path>
            <polygon id="Fill-20" fill="#C8A06D" points="24 231.268662 13.7153807 240 12 228"></polygon>
            <polygon id="Fill-26" fill="#C8A06D" opacity="0.498465402" points="343 271 331 264.514793 342.179672 259"></polygon>
            <polygon id="Fill-32" fill="#C8A06D" points="346 152 334 145.514793 345.179672 140"></polygon>
            <path d="M377,366.5 C377,370.089378 374.089378,373 370.5,373 C366.913541,373 364,370.089378 364,366.5 C364,362.910622 366.913541,360 370.5,360 C374.089378,360 377,362.910622 377,366.5" id="Fill-34" fill="#C8A06D"></path>
            <path d="M30.6928551,492.601035 C29.97124,492.251469 29.4837817,491.922552 29.1701001,491.605435 C28.7253496,491.155571 28.5913353,490.763231 28.3630694,489.239594 C27.8829745,486.021223 27.2541385,484.137695 25.2733789,481.451786 C24.6239253,480.569758 23.763878,479.823427 22.5680588,479.004822 C22.1984152,478.751128 21.8110994,478.500384 21.2853513,478.169992 C21.3766577,478.227516 20.3030712,477.554933 20.0158979,477.372037 C17.5182262,475.779077 16.3091529,474.62713 15.7834048,473.140367 C15.4623597,472.231789 15.6405545,471.155066 16.606635,467.742001 C17.5417892,464.439557 17.8672523,462.588478 17.6095326,460.401107 C17.3856847,458.505779 16.8319556,457.393657 14.8438326,454.105963 C13.1502462,451.303532 12.5597001,449.891992 12.6289162,448.421454 C12.6878235,447.14561 11.7025981,446.061512 10.427254,446.002514 C9.15338255,445.943515 8.07096,446.930266 8.01205265,448.206109 C7.88687453,450.909717 8.72924963,452.927467 10.8911494,456.502779 C12.4728117,459.120839 12.9072534,459.991067 13.0191774,460.943894 C13.1826453,462.33036 12.9337617,463.747799 12.1606028,466.479432 C10.8793679,471.003145 10.6393205,472.457459 11.4272063,474.686129 C12.3947595,477.420711 14.2282507,479.168543 17.5344258,481.276266 C17.8392713,481.472436 18.934948,482.156819 18.8259694,482.08897 C19.307537,482.391338 19.6491996,482.614057 19.9614086,482.826452 C20.7654939,483.378089 21.2735698,483.817628 21.5548524,484.201118 C23.0083913,486.170194 23.4133793,487.387039 23.7933317,489.925452 C24.1585573,492.363566 24.5473458,493.511088 25.8904333,494.866579 C26.604685,495.586361 27.5192216,496.205846 28.6841144,496.769282 C29.8342804,497.325343 31.2141851,496.841555 31.7693869,495.691084 C32.3245886,494.539137 31.8430211,493.155622 30.6928551,492.601035" id="Fill-5" fill="#C8A06D" opacity="0.498465402" transform="translate(20.000000, 471.500000) rotate(-20.000000) translate(-20.000000, -471.500000) "></path>
        </g>
    </g>
</svg>