<?xml version="1.0" encoding="UTF-8"?>
<svg width="1459px" height="602px" viewBox="0 0 1459 602" version="1.1" xmlns="http://www.w3.org/2000/svg" xmlns:xlink="http://www.w3.org/1999/xlink">
    <!-- Generator: Sketch 59 (86127) - https://sketch.com -->
    <title>confetti copy</title>
    <desc>Created with Sketch.</desc>
    <g id="Landing-page---Deals" stroke="none" stroke-width="1" fill="none" fill-rule="evenodd">
        <g id="confetti-copy">
            <path d="M1030.69653,92.5239323 C1029.30247,90.0648221 1029.05785,88.7182371 1029.09027,85.6413865 C1029.13153,81.8090262 1028.74986,79.6995244 1026.87982,76.400465 C1025.00831,73.0984429 1023.39763,71.6911208 1020.09816,69.7727186 C1017.44415,68.2291084 1016.41555,67.3299036 1015.01855,64.8663492 C1013.62155,62.4013135 1013.37545,61.0502842 1013.4064,57.9675081 C1013.44471,54.1336664 1013.06009,52.0241646 1011.18858,48.7206611 C1009.31559,45.4156762 1007.70491,44.0068727 1004.40544,42.0855076 C1001.74848,40.5389347 1000.71842,39.6382485 999.321411,37.1732128 C998.689222,36.0592062 997.276008,35.6696002 996.167836,36.3051172 C995.058191,36.9406343 994.672099,38.3612889 995.302814,39.4767769 C997.177275,42.778799 998.787956,44.1876025 1002.08595,46.1074861 L1002.08889,46.1089675 C1004.74291,47.6525777 1005.77298,48.5547452 1007.16998,51.0212624 C1008.56698,53.4862982 1008.81161,54.835846 1008.78213,57.9186222 C1008.74382,61.7524639 1009.12844,63.8634471 1011.00143,67.168432 C1012.87294,70.4689727 1014.48215,71.8762948 1017.78161,73.7961784 C1020.43562,75.3397886 1021.46422,76.2389933 1022.8627,78.7010664 C1024.25528,81.161658 1024.4999,82.508243 1024.46601,85.586575 C1024.42475,89.4189353 1024.80789,91.5284371 1026.67793,94.826015 C1027.31012,95.941503 1028.72186,96.3296276 1029.83151,95.695592 C1030.94115,95.0585935 1031.32872,93.6394203 1030.69653,92.5239323" id="Fill-1-Copy" fill="#C8A06D"></path>
            <path d="M1062.27315,212.905633 C1062.7044,212.214042 1063.08986,211.758493 1063.43987,211.47885 C1063.93905,211.078929 1064.34371,210.991729 1065.88555,210.939107 C1069.1435,210.830858 1071.08999,210.415903 1073.99054,208.724511 C1074.94311,208.169734 1075.78492,207.386431 1076.7375,206.26936 C1077.03287,205.923564 1077.32676,205.56123 1077.71665,205.066592 C1077.64872,205.153793 1078.44179,204.143467 1078.65741,203.874348 C1080.53154,201.52895 1081.81789,200.438941 1083.35677,200.081118 C1084.29753,199.863116 1085.34905,200.169822 1088.63063,201.551502 C1091.80735,202.889581 1093.61059,203.436841 1095.81554,203.433834 C1097.72659,203.430827 1098.89626,203.000838 1102.39642,201.37259 C1105.38115,199.984896 1106.85357,199.553403 1108.30828,199.79546 C1109.56951,200.005945 1110.76134,199.133938 1110.96957,197.848479 C1111.17486,196.563021 1110.31976,195.349728 1109.05704,195.139244 C1106.38245,194.69422 1104.27941,195.309135 1100.47059,197.081715 C1097.68524,198.376194 1096.76811,198.714472 1095.80816,198.715976 C1094.40957,198.717479 1093.02871,198.299517 1090.40286,197.191467 C1086.05204,195.360253 1084.63425,194.945298 1082.32592,195.482033 C1079.49331,196.139045 1077.54238,197.792851 1075.06126,200.897497 C1074.83235,201.184658 1074.02451,202.213024 1074.10426,202.110789 C1073.74834,202.563331 1073.48841,202.883568 1073.2403,203.175239 C1072.59786,203.925466 1072.10016,204.388531 1071.68664,204.630588 C1069.55997,205.86944 1068.30316,206.138559 1065.73491,206.224256 C1063.26708,206.305443 1062.08116,206.565542 1060.57772,207.76831 C1059.77874,208.405777 1059.05508,209.261246 1058.36096,210.376813 C1057.6757,211.475843 1057.9947,212.934199 1059.07576,213.631805 C1060.15534,214.330914 1061.58789,214.004663 1062.27315,212.905633" id="Fill-3-Copy" fill="#C8A06D" opacity="0.503045945"></path>
            <path d="M68.6928551,46.6010353 C67.97124,46.251469 67.4837817,45.9225521 67.1701001,45.605435 C66.7253496,45.1555711 66.5913353,44.7632308 66.3630694,43.2395935 C65.8829745,40.0212232 65.2541385,38.1376948 63.2733789,35.4517863 C62.6239253,34.5697581 61.763878,33.8234266 60.5680588,33.0048218 C60.1984152,32.7511281 59.8110994,32.5003843 59.2853513,32.1699925 C59.3766577,32.2275161 58.3030712,31.5549327 58.0158979,31.3720372 C55.5182262,29.7790767 54.3091529,28.6271302 53.7834048,27.140367 C53.4623597,26.2317895 53.6405545,25.1550661 54.606635,21.7420006 C55.5417892,18.4395573 55.8672523,16.5884781 55.6095326,14.4011073 C55.3856847,12.5057792 54.8319556,11.3936567 52.8438326,8.1059631 C51.1502462,5.30353246 50.5597001,3.89199239 50.6289162,2.42145379 C50.6878235,1.14561037 49.7025981,0.0615122017 48.427254,0.00251366194 C47.1533826,-0.0564848778 46.07096,0.930265699 46.0120526,2.20610912 C45.8868745,4.9097172 46.7292496,6.92746726 48.8911494,10.5027788 C50.4728117,13.120839 50.9072534,13.9910674 51.0191774,14.9438939 C51.1826453,16.3303595 50.9337617,17.7477995 50.1606028,20.4794318 C48.8793679,25.0031449 48.6393205,26.4574589 49.4272063,28.6861287 C50.3947595,31.420711 52.2282507,33.1685428 55.5344258,35.2762656 C55.8392713,35.4724358 56.934948,36.1568188 56.8259694,36.0889705 C57.307537,36.391338 57.6491996,36.6140575 57.9614086,36.8264522 C58.7654939,37.3780886 59.2735698,37.8176277 59.5548524,38.2011182 C61.0083913,40.1701945 61.4133793,41.3870394 61.7933317,43.9254515 C62.1585573,46.3635662 62.5473458,47.5110878 63.8904333,48.8665792 C64.604685,49.5863614 65.5192216,50.2058461 66.6841144,50.7692821 C67.8342804,51.3253434 69.2141851,50.8415554 69.7693869,49.6910838 C70.3245886,48.5391373 69.8430211,47.1556216 68.6928551,46.6010353" id="Fill-5" fill="#C8A06D" opacity="0.498465402"></path>
            <path d="M578.692855,597.601035 C577.97124,597.251469 577.483782,596.922552 577.1701,596.605435 C576.72535,596.155571 576.591335,595.763231 576.363069,594.239594 C575.882974,591.021223 575.254138,589.137695 573.273379,586.451786 C572.623925,585.569758 571.763878,584.823427 570.568059,584.004822 C570.198415,583.751128 569.811099,583.500384 569.285351,583.169992 C569.376658,583.227516 568.303071,582.554933 568.015898,582.372037 C565.518226,580.779077 564.309153,579.62713 563.783405,578.140367 C563.46236,577.231789 563.640554,576.155066 564.606635,572.742001 C565.541789,569.439557 565.867252,567.588478 565.609533,565.401107 C565.385685,563.505779 564.831956,562.393657 562.843833,559.105963 C561.150246,556.303532 560.5597,554.891992 560.628916,553.421454 C560.687824,552.14561 559.702598,551.061512 558.427254,551.002514 C557.153383,550.943515 556.07096,551.930266 556.012053,553.206109 C555.886875,555.909717 556.72925,557.927467 558.891149,561.502779 C560.472812,564.120839 560.907253,564.991067 561.019177,565.943894 C561.182645,567.33036 560.933762,568.747799 560.160603,571.479432 C558.879368,576.003145 558.63932,577.457459 559.427206,579.686129 C560.394759,582.420711 562.228251,584.168543 565.534426,586.276266 C565.839271,586.472436 566.934948,587.156819 566.825969,587.08897 C567.307537,587.391338 567.6492,587.614057 567.961409,587.826452 C568.765494,588.378089 569.27357,588.817628 569.554852,589.201118 C571.008391,591.170194 571.413379,592.387039 571.793332,594.925452 C572.158557,597.363566 572.547346,598.511088 573.890433,599.866579 C574.604685,600.586361 575.519222,601.205846 576.684114,601.769282 C577.83428,602.325343 579.214185,601.841555 579.769387,600.691084 C580.324589,599.539137 579.843021,598.155622 578.692855,597.601035" id="Fill-5-Copy" fill="#C8A06D"></path>
            <path d="M1384.69286,294.601035 C1383.97124,294.251469 1383.48378,293.922552 1383.1701,293.605435 C1382.72535,293.155571 1382.59134,292.763231 1382.36307,291.239594 C1381.88297,288.021223 1381.25414,286.137695 1379.27338,283.451786 C1378.62393,282.569758 1377.76388,281.823427 1376.56806,281.004822 C1376.19842,280.751128 1375.8111,280.500384 1375.28535,280.169992 C1375.37666,280.227516 1374.30307,279.554933 1374.0159,279.372037 C1371.51823,277.779077 1370.30915,276.62713 1369.7834,275.140367 C1369.46236,274.231789 1369.64055,273.155066 1370.60664,269.742001 C1371.54179,266.439557 1371.86725,264.588478 1371.60953,262.401107 C1371.38568,260.505779 1370.83196,259.393657 1368.84383,256.105963 C1367.15025,253.303532 1366.5597,251.891992 1366.62892,250.421454 C1366.68782,249.14561 1365.7026,248.061512 1364.42725,248.002514 C1363.15338,247.943515 1362.07096,248.930266 1362.01205,250.206109 C1361.88687,252.909717 1362.72925,254.927467 1364.89115,258.502779 C1366.47281,261.120839 1366.90725,261.991067 1367.01918,262.943894 C1367.18265,264.33036 1366.93376,265.747799 1366.1606,268.479432 C1364.87937,273.003145 1364.63932,274.457459 1365.42721,276.686129 C1366.39476,279.420711 1368.22825,281.168543 1371.53443,283.276266 C1371.83927,283.472436 1372.93495,284.156819 1372.82597,284.08897 C1373.30754,284.391338 1373.6492,284.614057 1373.96141,284.826452 C1374.76549,285.378089 1375.27357,285.817628 1375.55485,286.201118 C1377.00839,288.170194 1377.41338,289.387039 1377.79333,291.925452 C1378.15856,294.363566 1378.54735,295.511088 1379.89043,296.866579 C1380.60468,297.586361 1381.51922,298.205846 1382.68411,298.769282 C1383.83428,299.325343 1385.21419,298.841555 1385.76939,297.691084 C1386.32459,296.539137 1385.84302,295.155622 1384.69286,294.601035" id="Fill-5-Copy-2" fill="#C8A06D"></path>
            <path d="M1.55905629,345.504023 C1.81277492,345.58938 2.3360696,345.804244 3.03235424,346.164802 C4.22166032,346.778488 5.41384956,347.568773 6.51954382,348.544489 C10.2128798,351.80129 12.1013537,356.266331 11.2897424,362.381111 C11.1225187,363.643802 11.9889102,364.807891 13.2272301,364.978604 C14.46555,365.15079 15.6044007,364.264845 15.7730659,363.000683 C16.8009147,355.256766 14.2738194,349.280323 9.47767239,345.049278 C7.06734541,342.92419 4.66134317,341.68063 2.96604142,341.11551 C1.77817693,340.718159 0.500934278,341.378938 0.113148418,342.591593 C-0.276079026,343.804247 0.371191797,345.108145 1.55905629,345.504023" id="Fill-7" fill="#FFFFFF"></path>
            <path d="M343.123598,492.614741 C342.924475,492.797753 342.48377,493.152339 341.832229,493.595571 C340.719484,494.347636 339.453005,495.021064 338.065002,495.534355 C333.428078,497.248664 328.608136,496.829738 323.65203,493.293887 C322.628598,492.563269 321.192278,492.780595 320.44264,493.780013 C319.694466,494.78229 319.917014,496.184906 320.941911,496.916955 C327.220134,501.396462 333.66966,501.956936 339.690195,499.730766 C342.716568,498.611246 344.968412,497.088528 346.283207,495.871784 C347.20415,495.021064 347.242218,493.59986 346.371056,492.700528 C345.49843,491.801195 344.044541,491.762591 343.123598,492.614741" id="Fill-9" fill="#FFFFFF"></path>
            <path d="M358.517323,99.6448743 C358.517323,99.3662151 358.553311,98.7819298 358.669914,97.978912 C358.868571,96.6095869 359.229897,95.1818333 359.791319,93.7795485 C361.664165,89.0947787 365.221278,85.8092974 371.153638,84.6631993 C372.380129,84.4249906 373.189153,83.1979914 372.961705,81.9215527 C372.734257,80.645114 371.555271,79.8031439 370.32878,80.0398544 C362.812921,81.4930768 358.050911,85.8901984 355.619521,91.9742567 C354.398788,95.0290202 353.995716,97.8021283 354,99.6553615 C354.002913,100.954273 355.016352,102.00299 356.262997,102 C357.511082,101.996997 358.520202,100.942287 358.517323,99.6448743" id="Fill-11" fill="#C8A06D"></path>
            <path d="M878.517323,201.644874 C878.517323,201.366215 878.553311,200.78193 878.669914,199.978912 C878.868571,198.609587 879.229897,197.181833 879.791319,195.779549 C881.664165,191.094779 885.221278,187.809297 891.153638,186.663199 C892.380129,186.424991 893.189153,185.197991 892.961705,183.921553 C892.734257,182.645114 891.555271,181.803144 890.32878,182.039854 C882.812921,183.493077 878.050911,187.890198 875.619521,193.974257 C874.398788,197.02902 873.995716,199.802128 874,201.655361 C874.002913,202.954273 875.016352,204.00299 876.262997,204 C877.511082,203.996997 878.520202,202.942287 878.517323,201.644874" id="Fill-11-Copy-3" fill="#C8A06D" transform="translate(883.500000, 193.000000) rotate(120.000000) translate(-883.500000, -193.000000) "></path>
            <path d="M770.517323,315.644874 C770.517323,315.366215 770.553311,314.78193 770.669914,313.978912 C770.868571,312.609587 771.229897,311.181833 771.791319,309.779549 C773.664165,305.094779 777.221278,301.809297 783.153638,300.663199 C784.380129,300.424991 785.189153,299.197991 784.961705,297.921553 C784.734257,296.645114 783.555271,295.803144 782.32878,296.039854 C774.812921,297.493077 770.050911,301.890198 767.619521,307.974257 C766.398788,311.02902 765.995716,313.802128 766,315.655361 C766.002913,316.954273 767.016352,318.00299 768.262997,318 C769.511082,317.996997 770.520202,316.942287 770.517323,315.644874" id="Fill-11-Copy" fill="#FFFFFF" opacity="0.501534598"></path>
            <path d="M420.517323,570.644874 C420.517323,570.366215 420.553311,569.78193 420.669914,568.978912 C420.868571,567.609587 421.229897,566.181833 421.791319,564.779549 C423.664165,560.094779 427.221278,556.809297 433.153638,555.663199 C434.380129,555.424991 435.189153,554.197991 434.961705,552.921553 C434.734257,551.645114 433.555271,550.803144 432.32878,551.039854 C424.812921,552.493077 420.050911,556.890198 417.619521,562.974257 C416.398788,566.02902 415.995716,568.802128 416,570.655361 C416.002913,571.954273 417.016352,573.00299 418.262997,573 C419.511082,572.996997 420.520202,571.942287 420.517323,570.644874" id="Fill-11-Copy-2" fill="#C8A06D"></path>
            <path d="M37,557.49927 C37,561.089051 34.0879183,564 30.5,564 C26.9120817,564 24,561.089051 24,557.49927 C24,553.910949 26.9120817,551 30.5,551 C34.0879183,551 37,553.910949 37,557.49927" id="Fill-13" fill="#C8A06D" opacity="0.498465402"></path>
            <path d="M16,129.49927 C16,133.089051 13.0879183,136 9.5,136 C5.91208174,136 3,133.089051 3,129.49927 C3,125.910949 5.91208174,123 9.5,123 C13.0879183,123 16,125.910949 16,129.49927" id="Fill-13-Copy" fill="#C8A06D"></path>
            <path d="M547,65.5 C547,69.0893779 544.089378,72 540.5,72 C536.913541,72 534,69.0893779 534,65.5 C534,61.9120817 536.913541,59 540.5,59 C544.089378,59 547,61.9120817 547,65.5" id="Fill-18" fill="#C8A06D"></path>
            <polygon id="Fill-20" fill="#C8A06D" points="76 226.268662 65.7153807 235 64 223"></polygon>
            <polygon id="Fill-22" fill="#C8A06D" points="100 427 88 420.513314 99.1796724 415"></polygon>
            <polygon id="Fill-24" fill="#C8A06D" points="805 90.4027084 812.76401 80 817 91"></polygon>
            <polygon id="Fill-24-Copy" fill-opacity="0.5" fill="#FFFFFF" transform="translate(598.000000, 8.500000) rotate(80.000000) translate(-598.000000, -8.500000) " points="592 13.4027084 599.76401 3 604 14"></polygon>
            <polygon id="Fill-26" fill="#C8A06D" opacity="0.498465402" points="495 421 483 414.514793 494.179672 409"></polygon>
            <polygon id="Fill-26-Copy-2" fill="#C8A06D" opacity="0.498465402" transform="translate(211.000000, 570.000000) rotate(110.000000) translate(-211.000000, -570.000000) " points="217 576 205 569.514793 216.179672 564"></polygon>
            <polygon id="Fill-26-Copy" fill="#FFFFFF" points="1362 146 1350 139.514793 1361.17967 134"></polygon>
            <polygon id="Fill-28" fill="#FFFFFF" points="188 80 176 73.5147929 187.179672 68"></polygon>
            <polygon id="Fill-30-Copy" fill="#FFFFFF" opacity="0.501534598" transform="translate(1232.000000, 172.000000) rotate(70.000000) translate(-1232.000000, -172.000000) " points="1238 178 1226 171.514793 1237.17967 166"></polygon>
            <polygon id="Fill-30-Copy-2" fill="#FFFFFF" opacity="0.501534598" points="1426 429 1414 422.514793 1425.17967 417"></polygon>
            <polygon id="Fill-32" fill="#C8A06D" points="619 299 607 292.514793 618.179672 287"></polygon>
            <path d="M640,461.5 C640,465.089378 637.089378,468 633.5,468 C629.913541,468 627,465.089378 627,461.5 C627,457.910622 629.913541,455 633.5,455 C637.089378,455 640,457.910622 640,461.5" id="Fill-34" fill="#FFFFFF"></path>
            <path d="M1224,59.5 C1224,63.0893779 1221.08938,66 1217.5,66 C1213.91354,66 1211,63.0893779 1211,59.5 C1211,55.9106221 1213.91354,53 1217.5,53 C1221.08938,53 1224,55.9106221 1224,59.5" id="Fill-34-Copy-2" fill="#C8A06D"></path>
            <path d="M684,158.5 C684,162.089378 681.089378,165 677.5,165 C673.913541,165 671,162.089378 671,158.5 C671,154.910622 673.913541,152 677.5,152 C681.089378,152 684,154.910622 684,158.5" id="Fill-34-Copy" fill="#FFFFFF"></path>
            <path d="M1275,338.5 C1275,342.089378 1272.08938,345 1268.5,345 C1264.91354,345 1262,342.089378 1262,338.5 C1262,334.910622 1264.91354,332 1268.5,332 C1272.08938,332 1275,334.910622 1275,338.5" id="Fill-34-Copy-3" fill="#FFFFFF"></path>
            <path d="M1405.57401,65.6087163 C1407.90158,64.038466 1409.21258,63.6977513 1412.25204,63.515543 C1416.03416,63.2874123 1418.08781,62.7556012 1421.21223,60.6490956 C1424.33812,58.5396272 1425.61396,56.8256842 1427.27505,53.3829845 C1428.61241,50.6128259 1429.42831,49.5180948 1431.75881,47.9448818 C1434.0937,46.3701874 1435.40909,46.0279913 1438.45149,45.8428203 C1442.23507,45.6117269 1444.29019,45.0784343 1447.41754,42.968966 C1450.54635,40.8594977 1451.82513,39.1455546 1453.48768,35.7013736 C1454.82797,32.9282523 1455.64386,31.8335212 1457.97729,30.2588268 C1459.03342,29.5462887 1459.31759,28.1019547 1458.61302,27.0338882 C1457.90991,25.9673031 1456.48173,25.6784363 1455.42561,26.3909744 C1452.29972,28.5019241 1451.02241,30.2158671 1449.35986,33.6585668 L1449.3584,33.6615295 C1448.01957,36.4316881 1447.20221,37.5264192 1444.86732,39.1011136 C1442.53242,40.675808 1441.21996,41.0165227 1438.1761,41.2016937 C1434.39252,41.4327872 1432.3374,41.9675611 1429.20859,44.0770294 C1426.0827,46.1864977 1424.80686,47.9004408 1423.14431,51.3431405 C1421.80841,54.113299 1420.99251,55.2080301 1418.66055,56.7812432 C1416.33298,58.3514935 1415.02052,58.6922082 1411.98252,58.8744164 C1408.19894,59.1010658 1406.14528,59.6343583 1403.02233,61.7423453 C1401.96767,62.4548834 1401.68203,63.897736 1402.3866,64.9643211 C1403.09117,66.033869 1404.51789,66.3212544 1405.57401,65.6087163" id="Fill-36" fill="#C8A06D"></path>
        </g>
    </g>
</svg>