<svg width="77" height="56" viewBox="0 0 77 56" xmlns="http://www.w3.org/2000/svg">
  <defs/>
  <g fill="none" fill-rule="evenodd">
    <path d="M38 56V33.494C38 22.773 30.569 14 21.495 14 12.41 14 5 22.773 5 33.494V56h33z" fill="#002A75" fill-rule="nonzero"/>
    <rect fill="#FFF9C9" fill-rule="nonzero" y="24" width="40" height="31" rx="2.814"/>
    <path d="M13 37c1.33 0 2.177.967 3.74.967 1.562 0 2.43-.942 3.76-.934 1.33.008 2.228.959 3.74.967 1.512.008 2.379-.95 3.76-.942M13 41c1.332 0 2.179.967 3.742.975 1.564.008 2.421-.958 3.763-.95 1.342.008 2.22.967 3.742.975 1.524.008 2.371-.95 3.753-.95" stroke="#04D4E0" stroke-width="1.421" stroke-linecap="round"/>
    <path d="M60.52 14H22c9.037 0 16.439 8.773 16.439 19.494V56H77V33.494C77 22.773 69.567 14 60.52 14z" fill="#006AEB" fill-rule="nonzero"/>
    <path d="M52.42 32.037V7.446h-4.456C46.344 7.446 45 5.912 45 3.638S46.471 0 47.964 0h8.325c1.322 0 1.706.73 1.706 2.443v29.615a2.765 2.765 0 01-1.342 2.542 2.812 2.812 0 01-2.892 0 2.765 2.765 0 01-1.342-2.542v-.021z" fill="#FEEA6E" fill-rule="nonzero"/>
    <circle fill="#006AEB" fill-rule="nonzero" cx="55.5" cy="31.5" r="1.5"/>
    <path d="M5 54.468V56h33V33.494C38 22.773 30.569 14 21.495 14c-6.07 0-11.433 3.918-14.27 9.71h1.693a17.975 17.975 0 012.08-3.031 13.739 13.739 0 0110.497-5.21 13.729 13.729 0 0110.487 5.21 19.68 19.68 0 014.49 12.774v21.015H5z" fill="#9CF" fill-rule="nonzero"/>
  </g>
</svg>
