<svg xmlns="http://www.w3.org/2000/svg" data-color-count="2" width="28" height="24" viewBox="0 0 28 24"><g fill="none" fill-rule="evenodd"><circle fill="#FFF" cx="11.5" cy="11.5" r="8.5"/><path d="M25.886 3.239c.437 0 .812-.153 1.124-.457a1.57 1.57 0 00.481-1.163c0-.446-.157-.828-.47-1.144A1.54 1.54 0 0025.886 0c-.422 0-.79.146-1.104.44a1.55 1.55 0 00-.5 1.18c0 .455.154.839.463 1.15.31.313.69.469 1.141.469zm0-.27c-.366 0-.678-.132-.936-.394-.26-.262-.39-.58-.39-.956 0-.361.128-.674.383-.938.26-.27.574-.404.943-.404.365 0 .677.135.937.404.257.265.385.578.385.938 0 .371-.13.689-.388.954a1.26 1.26 0 01-.934.396zm-.237-.449v-.635h.098l.102.007a.517.517 0 01.16.028.217.217 0 01.13.132.816.816 0 01.028.22 1.3 1.3 0 00.028.248h.445l-.016-.05a.429.429 0 01-.015-.105v-.161c0-.183-.052-.317-.157-.402a.602.602 0 00-.252-.104.578.578 0 00.308-.12c.083-.068.125-.177.125-.328 0-.198-.079-.34-.237-.428a.85.85 0 00-.35-.093 226.76 226.76 0 00-.734-.004h-.13V2.52h.467zm.18-.958h-.18v-.52h.113a.77.77 0 01.27.037c.096.038.144.106.144.204 0 .098-.03.17-.092.213a.43.43 0 01-.254.066z" fill="#32313A" fill-rule="nonzero"/><path d="M19.748 20.49C20.983 22.622 23.923 24 23.78 24V11.713C23.78 5.245 18.458 0 11.89 0S0 5.245 0 11.713c0 6.47 5.324 11.714 11.89 11.714 3.017 0 5.761-1.114 7.858-2.937zM8.372 6.81a.965.965 0 010 1.38 4.858 4.858 0 000 6.935c1.94 1.91 5.097 1.912 7.038 0a4.858 4.858 0 000-6.934.965.965 0 010-1.38 1 1 0 011.401 0 6.793 6.793 0 010 9.694 6.99 6.99 0 01-4.92 2.004 6.99 6.99 0 01-4.92-2.004 6.791 6.791 0 010-9.695 1 1 0 011.4 0zm3.518-2.245c.548 0 .991.437.991.976v5.347a.983.983 0 01-.99.976.984.984 0 01-.991-.976V5.54c0-.54.443-.976.99-.976z" fill="#006AEB" fill-rule="nonzero"/></g></svg>