<svg xmlns="http://www.w3.org/2000/svg" data-color-count="2" height="20" viewBox="0 0 22 20" width="22"><g fill="none" fill-rule="evenodd"><path d="M20.235 3.01L5 3l1.632 9h13.603l1.719-7.394c.11-.541.024-.89-.28-1.198-.304-.308-.758-.398-1.44-.398z" fill="#9CF"/><path d="M20.064 15.24H6.588c-.77 0-.807-.675-.807-.81 0-.221.088-.712.73-.756h13.564c.51 0 .925-.42.925-.934 0-.437-.294-.934-.702-.934H7.1L5.498 2.464C5.128 1.099 4.528 0 2.875 0H.925C.415 0 0 .418 0 .934s.414.933.925.933h1.54c.663 0 1.234.396 1.358 1.336l1.404 8.936-.004.002c-.846.48-1.292 1.383-1.292 2.29 0 1.11.687 2.274 1.966 2.588-.113.26-.178.547-.178.851 0 1.175.946 2.13 2.111 2.13a2.121 2.121 0 001.966-2.892h5.733A2.12 2.12 0 0017.494 20a2.12 2.12 0 001.966-2.892h.604a.93.93 0 00.925-.933.929.929 0 00-.925-.934" fill="#006AEB"/></g></svg>