<svg xmlns="http://www.w3.org/2000/svg" data-color-count="2" width="32" height="32" viewBox="0 0 32 32"><g fill="none" fill-rule="evenodd"><path d="M8.756 10.31h-4.33a12.918 12.918 0 016.34-6.102c-.882 1.668-1.578 3.75-2.01 6.101zm-4.33 11.34h4.33c.432 2.351 1.128 4.433 2.01 6.101a12.918 12.918 0 01-6.34-6.102zm-1.333-5.67c0-.883.09-1.747.257-2.578h5.007c-.064.844-.11 1.695-.11 2.577 0 .883.046 1.733.11 2.578H3.35a13.044 13.044 0 01-.257-2.578zM15.98 3.092c1.198 0 3.13 2.654 4.072 7.216h-8.145c.94-4.562 2.874-7.216 4.073-7.216zm11.552 7.216h-4.33c-.431-2.352-1.127-4.433-2.01-6.101a12.919 12.919 0 016.34 6.101zM18.529 26.21c-.87 1.713-1.839 2.655-2.55 2.655-1.198 0-3.131-2.655-4.072-7.217h5.695l-.628-3.092h-5.511a29.782 29.782 0 01-.123-2.578c0-.902.052-1.752.123-2.577h9.04c.065.765.112 1.554.12 2.384l3.022 2.064c.038-.614.066-1.232.066-1.87 0-.883-.045-1.734-.11-2.578h5.007a13.068 13.068 0 010 5.155H24.68l5.861 4.002a15.92 15.92 0 001.418-6.58C31.959 7.152 24.807 0 15.979 0 7.153 0 0 7.152 0 15.98c0 8.827 7.152 15.979 15.98 15.979 1.25 0 2.464-.148 3.631-.42l-1.082-5.328z" fill="#9CF"/><path d="M26.779 26.378l2.497 3.73a.567.567 0 01-.137.775l-1.34.94a.54.54 0 01-.758-.149l-2.372-3.541-2.052 3.193c-.273.426-.889.266-.984-.2l-2.612-12.857c-.1-.49.448-.851.829-.569l10.288 7.025c.411.265.28.914-.185 1.008l-3.174.645z" fill="#006AEB"/></g></svg>