<svg xmlns="http://www.w3.org/2000/svg" data-color-count="2" width="19" height="20" viewBox="0 0 19 20"><g fill="none" fill-rule="evenodd"><path d="M17.841 1.114C17.385.708 14.33.008 14.33.008c-.688-.1-1.789.687-2.43 2.73-.561 1.742-.294 3.254.192 3.598l1.806 1.15c-.363 1.301-.688 1.895-2.122 3.663-1.436 1.771-2.317 2.62-4.357 3.583l-1.34-1.662c-.58-.578-2.82-.311-4.171.498-1.35.808-1.919 1.712-1.908 2.29.055.947 1.196 3.16 1.525 3.506.251.228.783.321 1.58.273l.03-.001c2.727-.175 8.02-1.904 11.719-6.828 3.7-4.924 3.836-10.823 2.987-11.694" fill="#006AEB"/><path d="M5.266 10.245a.832.832 0 01-.82-.954C4.739 7.372 6.17 5.917 7.925 5.75c.453-.068.861.288.904.745a.828.828 0 01-.746.904c-.983.095-1.824.996-2 2.143a.828.828 0 01-.817.704" fill="#9CF"/><path d="M1.676 10.259a.83.83 0 01-.828-.888c.265-3.788 3.158-6.785 6.878-7.123a.83.83 0 01.15 1.651c-2.905.264-5.166 2.614-5.375 5.59a.828.828 0 01-.825.77" fill="#9CF"/></g></svg>