<svg xmlns="http://www.w3.org/2000/svg" data-color-count="1" width="22" height="13" viewBox="0 0 22 13" xmlns:xlink="http://www.w3.org/1999/xlink"><defs><path d="M14.01 1.728a.974.974 0 01-.071-1.401 1.04 1.04 0 011.438-.071l6.287 5.527a.975.975 0 01-.003 1.473l-6.285 5.49a1.032 1.032 0 01-.68.254c-.29 0-.566-.117-.76-.329a.972.972 0 01.077-1.4l4.327-3.78H1.02C.457 7.492 0 7.049 0 6.5s.457-.992 1.02-.992h17.29l-4.3-3.78z" id="a"/></defs><g fill="none" fill-rule="evenodd"><mask id="b" fill="#fff"><use xlink:href="#a"/></mask><use fill="#006AEB" fill-rule="nonzero" xlink:href="#a"/><g mask="url(#b)" fill="#006AEB" fill-rule="nonzero"><path d="M0 0h22v13H0z"/></g></g></svg>