<svg xmlns="http://www.w3.org/2000/svg" data-color-count="1" width="15" height="16" viewBox="0 0 15 16" xmlns:xlink="http://www.w3.org/1999/xlink"><defs><path d="M14.648.908c.697.709.585 5.512-2.453 9.522-3.036 4.01-7.382 5.417-9.62 5.558l-.025.002c-.654.039-1.092-.036-1.298-.222C.982 15.485.046 13.684 0 12.913c-.009-.47.46-1.207 1.567-1.865 1.108-.658 2.949-.875 3.424-.405l1.099 1.353c1.675-.785 2.398-1.475 3.577-2.917 1.179-1.44 1.445-1.924 1.743-2.982L9.927 5.16c-.398-.28-.617-1.511-.158-2.93C10.296.568 11.2-.073 11.765.008c0 0 2.51.57 2.883.9zM4.323 8.342a.674.674 0 01-.673-.777c.241-1.562 1.416-2.748 2.857-2.884a.685.685 0 01.742.607.677.677 0 01-.613.738c-.806.075-1.497.809-1.641 1.743a.678.678 0 01-.672.573zm-2.947.011l-.048-.001a.677.677 0 01-.632-.721c.218-3.084 2.593-5.523 5.647-5.8a.68.68 0 01.74.61.677.677 0 01-.616.734c-2.386.215-4.242 2.13-4.413 4.551a.678.678 0 01-.678.627z" id="a"/></defs><g fill="none" fill-rule="evenodd"><mask id="b" fill="#fff"><use xlink:href="#a"/></mask><use fill="#006AEB" xlink:href="#a"/><g mask="url(#b)" fill="#006AEB" fill-rule="nonzero"><path d="M0 0h15v16H0z"/></g></g></svg>