<svg xmlns="http://www.w3.org/2000/svg" data-color-count="1" width="15" height="13" viewBox="0 0 15 13" xmlns:xlink="http://www.w3.org/1999/xlink"><defs><path d="M6.927 1.728a.967.967 0 01-.073-1.4A1.057 1.057 0 018.309.255l6.352 5.527c.216.19.339.458.339.738 0 .281-.125.55-.342.736l-6.351 5.49a1.051 1.051 0 01-.688.253c-.292 0-.57-.117-.767-.329a.964.964 0 01.078-1.4l4.372-3.779H1.03C.461 7.492 0 7.048 0 6.5c0-.547.461-.991 1.03-.991h10.242l-4.345-3.78z" id="a"/></defs><g fill="none" fill-rule="evenodd"><mask id="b" fill="#fff"><use xlink:href="#a"/></mask><use fill="#006AEB" fill-rule="nonzero" xlink:href="#a"/><g mask="url(#b)" fill="#006AEB" fill-rule="nonzero"><path d="M0 0h15v13H0z"/></g></g></svg>