<svg xmlns="http://www.w3.org/2000/svg" data-color-count="1" xmlns:xlink="http://www.w3.org/1999/xlink" width="16" height="17" viewBox="0 0 16 17"><defs><path id="a" d="M0 16V.75a.75.75 0 011.5 0V14.5h13.75a.75.75 0 110 1.5H0zM15 0a1 1 0 011 1v12h-3V1a1 1 0 011-1h1zm-5 4a1 1 0 011 1v8H8V5a1 1 0 011-1h1zM5 8a1 1 0 011 1v4H3V9a1 1 0 011-1h1z"/></defs><g fill="none" fill-rule="evenodd"><mask id="b" fill="#fff"><use xlink:href="#a"/></mask><path fill="#006AEB" fill-rule="nonzero" d="M0 0h16v16H0z" mask="url(#b)"/></g></svg>