<svg xmlns="http://www.w3.org/2000/svg" data-color-count="1" width="17" height="16" viewBox="0 0 17 16" xmlns:xlink="http://www.w3.org/1999/xlink"><defs><path d="M11.886 10.06l-.507-.518c.433-.625.504-1.263.196-1.918-.786-1.271-1.73-.896-2.645-.53-.139.056-.29.115-.453.177-.533.216-.76.31-.912.294-.15-.016-.184-.091-.184-.248 0-.474.747-.976 1.866-1.433L8.75 4.597c-.57.232-1.043.5-1.44.79l-.592-.606-.95.984.594.606c-.256.428-.356.882-.282 1.349l.045.158c.628 1.514 1.943 1.022 2.814.694.174-.066.332-.128.48-.187.71-.277.876-.265.98-.09.134.288-.29.937-1.927 1.81l.621 1.23a9.774 9.774 0 001.315-.832l.53.54.948-.983zm-7.44-6.304a1.437 1.437 0 00-.011-1.993 1.345 1.345 0 00-1.94.01 1.436 1.436 0 00.012 1.994 1.346 1.346 0 001.94-.011zm12.102 4.04a1 1 0 010 1.416l-6.274 6.493c-.388.405-1.029.386-1.421-.013L1.224 8.507c-.3-.269-.359-.703-.359-1.006 0-.597-.023-4.498-.023-6.479 0-.508.36-1.012 1.055-1.01C3.89.013 8.137 0 8.627 0c.353 0 .633.196.81.403l7.111 7.393z" id="a"/></defs><g transform="translate(-.8)" fill="none" fill-rule="evenodd"><mask id="b" fill="#fff"><use xlink:href="#a"/></mask><use fill="#006AEB" xlink:href="#a"/><g mask="url(#b)" fill="#006AEB" fill-rule="nonzero"><path d="M.8 0h16v16H.8z"/></g></g></svg>