<svg xmlns="http://www.w3.org/2000/svg" data-color-count="1" width="12" height="16" viewBox="0 0 12 16" xmlns:xlink="http://www.w3.org/1999/xlink"><defs><path d="M12.42 6.804c-.018.12-.036.24-.061.357-.728 3.79-5.196 8.666-5.715 8.666-.518 0-5.403-5.198-5.813-9.262a6.188 6.188 0 01-.04-.673C.79 2.639 3.41 0 6.643 0s5.853 2.639 5.853 5.892c0 .237-.017.472-.045.702-.007.07-.02.14-.032.21zM6.644 2.943a2.939 2.939 0 00-2.929 2.949A2.938 2.938 0 006.644 8.84a2.94 2.94 0 002.93-2.948 2.94 2.94 0 00-2.93-2.95z" id="a"/></defs><g transform="translate(-.7)" fill="none" fill-rule="evenodd"><mask id="b" fill="#fff"><use xlink:href="#a"/></mask><use fill="#006AEB" xlink:href="#a"/><g mask="url(#b)" fill="#006AEB" fill-rule="nonzero"><path d="M0 0h13.36v19.43H0z"/></g></g></svg>