<svg xmlns="http://www.w3.org/2000/svg" data-color-count="2" width="74" height="64" viewBox="0 0 74 64" xmlns:xlink="http://www.w3.org/1999/xlink"><defs><path d="M10.527 10.884c.981 0 1.776.776 1.776 1.736 0 .959-.795 1.735-1.776 1.735-.98 0-1.775-.776-1.775-1.735 0-.96.795-1.736 1.775-1.736zm5.81-3.751c.76.527.934 1.425.479 1.84-.456.418-1.226.348-1.79-.04-2.708-1.893-6.374-1.894-9.081 0-.563.386-1.335.458-1.79.04-.455-.416-.28-1.312.478-1.84 3.49-2.44 8.214-2.44 11.704 0zm4.151-3.652c.655.526.782 1.364.333 1.786-.45.426-1.222.356-1.767-.08-4.932-3.97-12.089-3.97-17.021 0-.546.438-1.318.506-1.767.08-.45-.423-.322-1.26.333-1.786 5.763-4.641 14.126-4.641 19.889 0z" id="a"/></defs><g fill="none" fill-rule="evenodd"><g stroke="#BACCDA" stroke-linejoin="round"><path stroke-width="1.5" d="M31.729 39.568h39.718v23.875H29.59"/><path fill="#BACCDA" d="M55.872 19.512h5.84v3.82h-5.84z"/><path stroke-width="1.5" fill="#BACCDA" d="M19.285 35.69l3.109-9.493 3.787 9.633z"/><path stroke-width="1.5" d="M31.729 39.568h41.665l-5.8-16.236H21.803L26.18 35.83m24.825 11.378a5.84 5.84 0 015.84 5.84v10.395h0-11.68V53.048a5.84 5.84 0 015.84-5.84z"/><path fill="#BACCDA" d="M21.397 23.332l-3.753 12.416h1.64l3.05-10.151-.736-1.493"/></g><use fill="#05D4E1" xlink:href="#a" transform="translate(26.008)"/><g stroke="#BACCDA" stroke-linejoin="round"><path stroke-width="1.5" d="M32.61 46.408v17.19H9.927"/><path stroke-width="1.5" fill="#BACCDA" d="M10.51 46.436v17.162H1.634V46.436l3.408-10.534 4.09 10.534z"/><path stroke-width="1.5" d="M34.179 46.408l-4.324-10.506H5.579l4.387 10.506z"/><path fill="#BACCDA" d="M4.788 35.902L.648 46.408h1.385l3.546-9.04-.621-.966"/></g></g></svg>