<svg xmlns="http://www.w3.org/2000/svg" data-color-count="4" width="32" height="36" viewBox="0 0 32 36"><g fill="none"><rect fill="#9CF" x=".65" y=".18" width="28.91" height="35.38" rx="4.12"/><rect fill="#006AEB" x="3.5" y=".18" width="27.85" height="35.38" rx="4.12"/><path fill="#E8F1F7" d="M7.13 3.72H27.8v5.43H7.13z"/><path fill="#FFF8C8" d="M7.19 11.55h9.07v9.01H7.19zm11.54 0h9.07v9.01h-9.07zM7.19 23.02h9.07v9.01H7.19zm11.54 0h9.07v9.01h-9.07z"/><path d="M12.433 27.516l1.754-1.707a.494.494 0 000-.702.495.495 0 00-.707 0l-1.753 1.74L10 25.075a.495.495 0 00-.707 0 .494.494 0 000 .702l1.754 1.74-1.754 1.747a.494.494 0 000 .702.503.503 0 00.707 0l1.76-1.747 1.753 1.747a.498.498 0 00.354.145.489.489 0 00.353-.145.494.494 0 000-.702l-1.787-1.747zm13.66-10.879h-5.646a.498.498 0 01-.5-.497c0-.274.224-.496.5-.496h5.646c.276 0 .5.222.5.496a.498.498 0 01-.5.497zm-11.68-.993h-2.186v-2.25a.498.498 0 00-.5-.496c-.276 0-.5.222-.5.496v2.25H9.033c-.276 0-.5.222-.5.496 0 .275.224.497.5.497h2.194v2.243c0 .274.224.496.5.496s.5-.222.5-.496v-2.243h2.186c.276 0 .5-.222.5-.497a.498.498 0 00-.5-.496zm11.68 12.368h-5.646a.498.498 0 01-.5-.496c0-.274.224-.496.5-.496h5.646c.276 0 .5.222.5.496a.498.498 0 01-.5.497z" fill="#04D3DF"/><circle fill="#04D3DF" cx="23.28" cy="25.35" r="1"/><circle fill="#04D3DF" cx="23.28" cy="29.69" r="1"/></g></svg>