<svg xmlns="http://www.w3.org/2000/svg" data-color-count="1" width="16" height="16" viewBox="0 0 16 16" xmlns:xlink="http://www.w3.org/1999/xlink"><defs><path d="M14.5 8H16a8 8 0 01-8 8 8 8 0 118-8h-1.5a6.5 6.5 0 10-13 0 6.5 6.5 0 0013 0zm-5.705 4.163a1.096 1.096 0 11-1.558-1.543 1.096 1.096 0 011.558 1.543zM7 3.683c.001-.158.07-.27.272-.27h1.477c.14 0 .251.135.251.27l-.242 5.64c0 .112-.051.191-.165.191H7.439c-.137 0-.167-.073-.167-.2L7 3.681z" id="a"/></defs><g fill="none" fill-rule="evenodd"><mask id="b" fill="#fff"><use xlink:href="#a"/></mask><use fill="#006AEB" fill-rule="nonzero" xlink:href="#a"/><g mask="url(#b)" fill="#006AEB" fill-rule="nonzero"><path d="M0 0h16v16H0z"/></g></g></svg>