<svg xmlns="http://www.w3.org/2000/svg" data-color-count="1" width="22" height="14" viewBox="0 0 22 14" xmlns:xlink="http://www.w3.org/1999/xlink"><defs><path d="M21.769 6.013L15.282.189a.704.704 0 00-.99.05.694.694 0 00.05.985l5.112 4.59H.701A.7.7 0 000 6.51a.7.7 0 00.701.697H19.49l-5.146 4.589a.692.692 0 00-.054.983.7.7 0 00.523.231.7.7 0 00.468-.178l6.486-5.784a.69.69 0 00.002-1.035" id="a"/></defs><g transform="matrix(-1 0 0 1 22 .5)" fill="none" fill-rule="evenodd"><mask id="b" fill="#fff"><use xlink:href="#a"/></mask><use fill="#006AEB" xlink:href="#a"/><g mask="url(#b)" fill="#006AEB" fill-rule="nonzero"><path d="M0 0h22v13H0z"/></g></g></svg>