<svg xmlns="http://www.w3.org/2000/svg" data-color-count="1" width="16" height="16" viewBox="0 0 16 16" xmlns:xlink="http://www.w3.org/1999/xlink"><defs><path d="M8 0a8 8 0 11-.001 16.001A8 8 0 018 0zm0 1.369A6.639 6.639 0 001.369 8 6.639 6.639 0 008 14.63 6.639 6.639 0 0014.631 8 6.639 6.639 0 008 1.369zm.579 4.326a1.094 1.094 0 11-1.56-1.54 1.094 1.094 0 011.56 1.54zm1.134 4.778a.28.28 0 01.278.28v.832a.279.279 0 01-.278.277H6.287a.28.28 0 01-.28-.277v-.832a.28.28 0 01.28-.28h1.018V8.302h-.678a.279.279 0 01-.278-.279v-.832c0-.153.125-.277.278-.277h1.789a.277.277 0 01.278.277v3.282h1.02z" id="a"/></defs><g fill="none" fill-rule="evenodd"><mask id="b" fill="#fff"><use xlink:href="#a"/></mask><use fill="#006AEB" xlink:href="#a"/><g mask="url(#b)" fill="#006AEB" fill-rule="nonzero"><path d="M0 0h16v16H0z"/></g></g></svg>