<svg xmlns="http://www.w3.org/2000/svg" data-color-count="2" width="91" height="71" viewBox="0 0 91 71"><g fill="none" fill-rule="evenodd"><path d="M61.13 6.639v1.5h-31c-2.686 0-4.805 2.126-4.805 4.824v51.204c0 2.697 2.119 4.824 4.804 4.824h31c2.685 0 4.804-2.127 4.804-4.824V14.519h19.221c3.1 0 5.554 2.462 5.554 5.574v36.685c.13 3.11-2.454 5.574-5.425 5.574l-17.85-.001v1.816c0 3.446-2.666 6.199-6.07 6.32l-.234.004h-31c-3.515 0-6.304-2.8-6.304-6.324V62.35H5.716c-3.1 0-5.554-2.462-5.554-5.573V20.093c0-3.112 2.454-5.574 5.554-5.574l18.107-.001.001-1.555c0-3.446 2.667-6.2 6.07-6.32l.234-.004h31zm-41.334 46.51c-1.326.725-2.54 1.338-4.061 1.417l-.33.008-.332-.008c-1.52-.079-2.734-.692-4.06-1.418-1.333-.607-2.551-1.33-4.188-1.417l-.333-.009-.135.006c-.565.05-.899.42-.899.902 0 .648.388 1.037.904 1.037 1.292 0 2.325.648 3.617 1.296 1.337.732 2.904 1.579 4.914 1.676l.382.01.36-.009c1.904-.084 3.477-.83 4.936-1.807 1.168-.586 2.125-1.066 3.253-1.152v-1.969c-1.558.048-2.74.848-4.028 1.436zm60.542 0c-1.327.725-2.54 1.338-4.061 1.417l-.331.008-.331-.008c-1.521-.079-2.735-.692-4.06-1.418-1.314-.6-2.518-1.31-4.12-1.413l-.001 1.968c1.057.145 1.976.703 3.087 1.26 1.337.732 2.903 1.579 4.913 1.676l.383.01.36-.008c2.021-.08 3.594-.828 4.935-1.808 1.193-.598 2.165-1.086 3.323-1.157l.294-.01.135-.005c.564-.05.898-.42.898-.902 0-.648-.387-1.037-.904-1.037-1.679-.13-3.1.778-4.52 1.426zM6.492 42.906l-.135.006c-.565.05-.899.42-.899.902 0 .648.388 1.037.904 1.037 1.292 0 2.325.648 3.617 1.296 1.337.732 2.904 1.579 4.914 1.676l.382.01.36-.009c1.904-.084 3.477-.83 4.936-1.806 1.168-.587 2.125-1.067 3.253-1.153v-1.937l-.185.016c-1.467.162-2.606.824-3.843 1.388-1.326.726-2.54 1.34-4.061 1.418l-.33.008-.332-.008c-1.52-.079-2.734-.692-4.06-1.418-1.333-.607-2.551-1.329-4.188-1.417l-.333-.009zm78.366 0l-.333.01c-1.637.087-2.855.809-4.188 1.416-1.326.726-2.54 1.34-4.06 1.418l-.331.008-.331-.008c-1.521-.079-2.735-.692-4.06-1.418-1.314-.599-2.518-1.309-4.12-1.413l-.001 1.968c.969.133 1.822.613 2.814 1.121l.273.14c1.337.731 2.903 1.578 4.913 1.675l.383.01.36-.008c2.021-.08 3.594-.828 4.935-1.807 1.193-.599 2.165-1.087 3.323-1.158l.294-.01.135-.005c.564-.05.898-.42.898-.902 0-.601-.334-.98-.795-1.03l-.109-.007zM70.65 20.87H69.1v1.037c-.662.083-1.218.22-1.668.443v4.983l.073.041c.307.166.666.331 1.078.496.517.26.904.39 1.292.519.258.13.517.26.646.389.129.13.258.259.258.389 0 .259 0 .389-.258.518-.113.114-.424.128-.76.13h-.144c-.517 0-1.163 0-1.809-.26l-.287-.115-.088-.036v2.387l.069.02c.426.111.852.177 1.278.2l.32.008v1.425h1.42V32.02c1.034-.13 1.81-.39 2.326-.908s.775-1.296.775-2.074c0-.778-.258-1.296-.646-1.815-.387-.518-1.162-.907-2.196-1.296-.516-.26-.775-.389-1.162-.519-.388-.13-.517-.259-.646-.388-.13-.13-.13-.26-.13-.39 0-.129.13-.259.259-.388.13-.13.388-.13.775-.13.822 0 1.644.107 2.563.516l.279.132.904-2.074c-.93-.466-1.756-.723-2.665-.77l-.306-.008V20.87zm-60.67 0H8.43v1.037c-1.034.13-1.81.39-2.326.908s-.775 1.166-.775 1.944c0 .519.13.908.259 1.297.129.388.387.777.774 1.037.388.259.905.518 1.55.777.517.26 1.034.39 1.292.519.258.13.517.26.646.389.13.13.258.259.258.389 0 .259 0 .389-.258.518-.113.114-.424.128-.76.13h-.144c-.517 0-1.163 0-1.808-.26a32.156 32.156 0 01-1.484-.622l-.325-.155v2.463c.93.466 1.86.723 2.79.77l.31.008H8.3v1.425h1.55V32.02c1.033-.13 1.808-.39 2.325-.908.517-.518.775-1.296.775-2.074 0-.778-.258-1.296-.646-1.815-.387-.518-1.162-.907-2.196-1.296-.516-.26-.775-.389-1.162-.519-.388-.13-.517-.259-.646-.388-.13-.13-.13-.26-.13-.39 0-.129.13-.259.26-.388.128-.13.387-.13.774-.13.822 0 1.644.107 2.563.516l.279.132.904-2.074c-.93-.466-1.755-.723-2.664-.77l-.307-.008V20.87z" fill="#B6CCDC" fill-rule="nonzero"/><path d="M59.192 41.87c-2.067 0-3.746-.907-5.167-1.685-1.292-.648-2.454-1.296-3.746-1.296-1.292 0-2.325.518-3.617 1.167-1.42.777-3.1 1.555-5.295 1.555-2.196 0-3.875-.907-5.296-1.685-1.292-.648-2.325-1.296-3.617-1.296-.517 0-.904-.39-.904-1.037 0-.519.387-.908 1.033-.908 1.809 0 3.23.778 4.521 1.426 1.421.778 2.713 1.426 4.392 1.426 1.679 0 2.97-.648 4.392-1.426 1.42-.648 2.712-1.426 4.52-1.426 1.809 0 3.23.778 4.65 1.556 1.421.778 2.713 1.426 4.263 1.426.517 0 .904.389.904 1.037-.13.648-.517 1.166-1.033 1.166zm0 8.815c-2.067 0-3.746-.907-5.167-1.685-1.292-.648-2.454-1.296-3.746-1.296-1.292 0-2.325.518-3.617 1.166-1.42.778-3.1 1.556-5.295 1.556-2.196 0-3.875-.907-5.296-1.685-1.292-.648-2.325-1.297-3.617-1.297-.517 0-.904-.388-.904-1.037 0-.518.387-.907 1.033-.907 1.809 0 3.23.778 4.521 1.426 1.421.778 2.713 1.426 4.392 1.426 1.679 0 2.97-.648 4.392-1.426 1.42-.648 2.841-1.426 4.52-1.426 1.809 0 3.23.778 4.65 1.556 1.421.777 2.713 1.425 4.263 1.425.517 0 .904.39.904 1.038-.13.648-.517 1.166-1.033 1.166zm0 8.815c-2.067 0-3.746-.907-5.167-1.685-1.292-.648-2.454-1.296-3.746-1.296-1.292 0-2.325.518-3.617 1.166-1.42.778-3.1 1.556-5.295 1.556-2.196 0-3.875-.908-5.296-1.685-1.292-.649-2.325-1.297-3.617-1.297-.517 0-.904-.389-.904-1.037 0-.518.387-.907 1.033-.907 1.809 0 3.23.778 4.521 1.426 1.421.778 2.713 1.426 4.392 1.426 1.679 0 2.97-.648 4.392-1.426 1.42-.648 2.712-1.426 4.52-1.426 1.809 0 3.23.778 4.65 1.555 1.421.778 2.713 1.426 4.263 1.426.517 0 .904.39.904 1.037-.13.648-.517 1.167-1.033 1.167z" fill="#05d4e1" fill-rule="nonzero"/><path d="M60.742.26c5.683 0 10.333 4.666 10.333 10.37 0 5.703-4.65 10.37-10.333 10.37-5.684 0-10.334-4.667-10.334-10.37 0-5.704 4.65-10.37 10.334-10.37zm4.004 6.092l-5.813 6.352L56.48 9.98c-.387-.388-1.033-.388-1.42-.13-.388.39-.388 1.038-.13 1.427l3.23 3.63a1.011 1.011 0 001.42 0l6.588-7.13a1.02 1.02 0 000-1.426 1.011 1.011 0 00-1.421 0z" fill="#05d4e1"/><path d="M34.65 25.796c-1.033 0-2.067-.259-3.1-.777v-2.463c.517.259 1.162.518 1.808.777.646.26 1.292.26 1.809.26.387 0 .775 0 .904-.13.258-.13.258-.26.258-.519 0-.13-.129-.259-.258-.388-.13-.13-.388-.26-.646-.39a8.874 8.874 0 01-1.292-.518c-.646-.26-1.162-.518-1.55-.778a2.015 2.015 0 01-.775-1.037c-.129-.389-.258-.777-.258-1.296 0-.778.258-1.426.775-1.944.517-.519 1.292-.778 2.325-.908v-1.037h1.55v1.037c1.033 0 1.938.26 2.97.778l-.903 2.074c-1.034-.518-1.938-.648-2.842-.648-.387 0-.646 0-.775.13-.13.13-.258.259-.258.388 0 .13 0 .26.129.39.129.129.258.259.646.388.258.13.645.26 1.162.519 1.033.389 1.809.777 2.196 1.296.388.519.646 1.037.646 1.815s-.258 1.555-.775 2.074c-.517.518-1.292.778-2.325.907v1.426h-1.55v-1.426h.129z" fill="#05d4e1" fill-rule="nonzero"/></g></svg>