<svg xmlns="http://www.w3.org/2000/svg" data-color-count="2" width="75" height="65" viewBox="0 0 75 65"><g fill="none" fill-rule="evenodd"><path d="M71.78 3.722c2.251 1.889 2.377 4.468.27 6.98-1.581 1.884-2.957 2.435-6.085 2.788l-1.047.11c-3.923.415-6.04 1.11-9.063 3.482l-.275.21a12.805 12.805 0 01-5.067 2.296l.018 9.831c0 1.344-.647 2.518-1.577 3.31l-21.198 20.39c-1.672 1.65-4.28 1.644-5.977.01L3.154 35.134c-1.715-1.646-1.674-4.373-.012-6.008l20.589-21.86c.919-1.027 2.2-1.44 3.652-1.483l.258-.003 10.35-.046 6.827-.02C49.204 2.272 54.636.635 61.084.8c4.814.124 8.605 1.167 10.696 2.922zM49.16 29.419l-.017-9.632c-1.537.13-3.05-.05-4.434-.532l.04-.035c-2.122 1.959-5.544 1.977-7.699.044-2.227-2-2.248-5.323-.046-7.348 2.065-1.905 5.357-1.976 7.517-.2l.182.156.163.152c1.713 1.671 1.98 4.165.796 6.093 1.096.31 2.278.41 3.48.293l-.015-8.3c.003-1.996-1.443-3.027-2.9-3.027l-2.152.003-16.602.067c-.856.021-1.996.218-2.72 1.028L4.141 30.065c-1.145 1.127-1.198 2.965-.037 4.079l18.628 18c1.158 1.113 2.916 1.129 4.061 0l21.21-20.403c.593-.507 1.156-1.31 1.156-2.322zm-5.87-10.794l-.02-.01c-2.75-1.531-3.869-4.214-2.457-6.808-1.045.013-2.087.386-2.879 1.117-1.608 1.48-1.592 3.86.033 5.32 1.458 1.308 3.716 1.434 5.322.381zm.497-5.733a4.223 4.223 0 00-1.687-.92c-1.211 2.053-.26 4.442 2.242 5.652 1.057-1.468.868-3.454-.555-4.732zM70.999 9.82c1.635-1.949 1.552-3.661-.1-5.047-1.812-1.52-5.318-2.485-9.85-2.602-5.466-.14-10.123 1.066-13.989 3.617 1.966.366 3.442 2.023 3.439 4.324l-.001 1.198.012 6.875a11.525 11.525 0 004.498-2.181l.313-.243c3.206-2.447 5.582-3.146 9.86-3.567l.607-.064c2.81-.314 3.91-.759 5.211-2.31z" fill="#BACCDA" fill-rule="nonzero"/><path d="M22.476 36.91l1.389-1.373c1.673 1.172 3.384 1.364 5.14.532 3.408-2.128 2.4-4.683 1.423-7.156-.151-.377-.31-.783-.476-1.226-.579-1.442-.831-2.06-.79-2.468.045-.406.246-.498.667-.498 1.27 0 2.616 2.02 3.84 5.048l3.45-1.345c-.621-1.54-1.339-2.82-2.116-3.893l1.621-1.603-2.636-2.572-1.624 1.607c-1.147-.69-2.365-.963-3.615-.761l-.426.122c-4.057 1.697-2.738 5.257-1.859 7.613.176.47.344.897.5 1.296.743 1.921.71 2.371.243 2.65-.772.365-2.51-.782-4.85-5.21l-3.297 1.68c.737 1.393 1.48 2.565 2.228 3.557l-1.446 1.433 2.634 2.567z" fill="#05D4E1"/><path d="M51.417 39.503c0 1.09-.61 1.954-1.251 2.5L29.604 61.545c-2.252 2.259-6.92 2.259-9.286 0L2.668 44.59c-1.255-1.2-1.198-3.179.04-4.392l.95-1.003 17.754 16.99c2.164 2.062 4.823 2.342 6.914.353l.173-.172 22.906-21.89.01 3.95v.518l.002.559z" fill="#BACCDA"/></g></svg>