<svg xmlns="http://www.w3.org/2000/svg" data-color-count="3" width="45" height="32" viewBox="0 0 45 32"><g fill="none" fill-rule="evenodd"><path d="M12.449 7.907c-.28.255-.546.518-.812.789.258-.27.5-.541.812-.79zM7.048 20.05v-.271.27z"/><path d="M11.637 8.696c-2.87 3-4.494 6.958-4.551 11.09a16.314 16.314 0 014.551-11.09z" fill="#04D3DF" fill-rule="nonzero"/><path d="M7.5 20.947h2.923a.608.608 0 00.612-.605.608.608 0 00-.612-.605H7.512c-.426 0-.433 1.21-.011 1.21zm29.08 0h3.274c.305 0 .293-1.21-.017-1.21H36.58a.608.608 0 00-.611.605c0 .334.273.605.61.605zM24.66 7.17V4.106c0-.361-1.223-.361-1.223 0V7.17c0 .335.274.606.611.606a.608.608 0 00.611-.606zm-9.95 3.074l-1.923-1.909c-.345-.343-1.2.522-.85.87l1.908 1.894a.615.615 0 00.864.001.601.601 0 000-.856zm20.4-1.601l-2.413 2.39a.601.601 0 000 .856.615.615 0 00.864 0l2.337-2.315c.21-.207-.604-1.114-.788-.931z" fill="#05d4e1" fill-rule="nonzero"/><path d="M17.706 4.683zm22.501 16.899c0 .316-.068.624-.106.932a5.58 5.58 0 00.106-.932z"/><path d="M4.15 32a19.733 19.733 0 01-1.987-20.95C5.59 4.26 12.626.006 20.326 0h3.95c7.587.226 14.411 4.566 17.69 11.306A19.724 19.724 0 0140 31.788l-.15.197L7.495 32zM24.276.66h-.852a10.59 10.59 0 00-1.191.052l-.168.02C14.95 1.317 8.718 5.689 5.803 12.145a19.242 19.242 0 002.045 19.337h31.65l.142-.197a19.248 19.248 0 001.692-19.61C38.167 5.128 31.58.88 24.276.66z" fill="#BACCDA" fill-rule="nonzero"/><path d="M25.92 24.602c4.068.335 9.355 1.355 12.064 2.428A15.608 15.608 0 0038 13.4c-2.535-5.243-7.778-8.67-13.629-8.927l-.214-.008-.492.003-.33.006c-.312.007-.575.019-.788.035l-.396.035c-5.68.543-10.638 4.067-12.973 9.238a15.6 15.6 0 00.185 13.245c2.645-1.142 8.228-2.217 12.333-2.48l.003.7c-4.218.283-10.397 1.453-12.65 2.705a16.292 16.292 0 01-.512-14.455c2.47-5.468 7.748-9.172 13.775-9.666.398-.04 1.016-.061 1.855-.061 6.205.185 11.785 3.785 14.466 9.33a16.299 16.299 0 01-.321 14.83c-2.486-1.194-8.416-2.314-12.642-2.647l.25-.681z" fill="#BACCDA" fill-rule="nonzero"/><path d="M26.711 11.799a.486.486 0 01.6-.323c.268.06.441.318.394.586l-.003.028-.012.12a5523.08 5523.08 0 01-1.358 12.31c-.16 1.69-1.047 3.005-3.194 2.442-1.354-.355-1.878-1.114-1.908-2.016-.017-.528.136-1.106.39-1.68 0 0 4.97-11.167 5.091-11.467zm-2.968 11.477a1.467 1.467 0 00-1.413.809 1.44 1.44 0 00.221 1.601c.396.44 1.02.6 1.58.404a1.45 1.45 0 00.972-1.487l-.013-.115a1.462 1.462 0 00-1.346-1.212z" fill="#05d4e1" fill-rule="nonzero"/></g></svg>