<svg xmlns="http://www.w3.org/2000/svg" data-color-count="1" width="152" height="25" viewBox="0 0 152 25" xmlns:xlink="http://www.w3.org/1999/xlink"><defs><filter color-interpolation-filters="auto" id="a"><feColorMatrix in="SourceGraphic" values="0 0 0 0 0.039216 0 0 0 0 0.501961 0 0 0 0 1.000000 0 0 0 1.000000 0"/></filter><filter color-interpolation-filters="auto" id="d"><feColorMatrix in="SourceGraphic" values="0 0 0 0 0.039216 0 0 0 0 0.501961 0 0 0 0 1.000000 0 0 0 1.000000 0"/></filter><filter color-interpolation-filters="auto" id="g"><feColorMatrix in="SourceGraphic" values="0 0 0 0 0.039216 0 0 0 0 0.501961 0 0 0 0 1.000000 0 0 0 1.000000 0"/></filter><filter color-interpolation-filters="auto" id="j"><feColorMatrix in="SourceGraphic" values="0 0 0 0 0.039216 0 0 0 0 0.501961 0 0 0 0 1.000000 0 0 0 1.000000 0"/></filter><filter color-interpolation-filters="auto" id="m"><feColorMatrix in="SourceGraphic" values="0 0 0 0 0.039216 0 0 0 0 0.501961 0 0 0 0 1.000000 0 0 0 1.000000 0"/></filter><path d="M12 20.465l-6.171 3.394c-.843.464-1.828-.285-1.667-1.267l1.179-7.19L.348 10.31c-.682-.695-.305-1.906.637-2.05l6.9-1.048L10.97.67a1.127 1.127 0 012.06 0l3.086 6.542 6.9 1.049c.941.143 1.318 1.354.636 2.05l-4.993 5.091 1.179 7.19c.16.982-.824 1.73-1.667 1.267L12 20.465z" id="b"/><path d="M12 20.465l-6.171 3.394c-.843.464-1.828-.285-1.667-1.267l1.179-7.19L.348 10.31c-.682-.695-.305-1.906.637-2.05l6.9-1.048L10.97.67a1.127 1.127 0 012.06 0l3.086 6.542 6.9 1.049c.941.143 1.318 1.354.636 2.05l-4.993 5.091 1.179 7.19c.16.982-.824 1.73-1.667 1.267L12 20.465z" id="e"/><path d="M12 20.465l-6.171 3.394c-.843.464-1.828-.285-1.667-1.267l1.179-7.19L.348 10.31c-.682-.695-.305-1.906.637-2.05l6.9-1.048L10.97.67a1.127 1.127 0 012.06 0l3.086 6.542 6.9 1.049c.941.143 1.318 1.354.636 2.05l-4.993 5.091 1.179 7.19c.16.982-.824 1.73-1.667 1.267L12 20.465z" id="h"/><path d="M12 20.465l-6.171 3.394c-.843.464-1.828-.285-1.667-1.267l1.179-7.19L.348 10.31c-.682-.695-.305-1.906.637-2.05l6.9-1.048L10.97.67a1.127 1.127 0 012.06 0l3.086 6.542 6.9 1.049c.941.143 1.318 1.354.636 2.05l-4.993 5.091 1.179 7.19c.16.982-.824 1.73-1.667 1.267L12 20.465z" id="k"/><path d="M12.007.007a1.13 1.13 0 011.023.67l3.086 6.542 6.9 1.049c.941.143 1.318 1.354.636 2.05l-4.993 5.092 1.179 7.19c.16.981-.824 1.73-1.667 1.267L12 20.472v-2.213l.003-7.069v1.728l.001.221v3.049l.001.497v1.537c.372 0 .743.094 1.08.278l3.71 2.042.468.257-.083-.504-.741-4.521a2.25 2.25 0 01.614-1.94l3.246-3.31.335-.342-.49-.075-4.367-.664a2.25 2.25 0 01-1.696-1.264l-1.858-3.94-.167-.352-.05-.108.001-3.772zM11.997 0L12 20.465l-6.171 3.394c-.843.464-1.828-.285-1.667-1.266l1.179-7.19L.348 10.31c-.682-.695-.305-1.906.637-2.05l6.9-1.048L10.97.67A1.13 1.13 0 0111.996 0z" id="n"/></defs><g fill="none" fill-rule="evenodd"><g filter="url(#a)"><mask id="c" fill="#fff"><use xlink:href="#b"/></mask><path fill="#006AEB" fill-rule="nonzero" mask="url(#c)" d="M0 0h24v24H0z"/></g><g filter="url(#d)"><g transform="translate(32)"><mask id="f" fill="#fff"><use xlink:href="#e"/></mask><path fill="#006AEB" fill-rule="nonzero" mask="url(#f)" d="M0 0h24v24H0z"/></g></g><g filter="url(#g)"><g transform="translate(64)"><mask id="i" fill="#fff"><use xlink:href="#h"/></mask><path fill="#006AEB" fill-rule="nonzero" mask="url(#i)" d="M0 0h24v24H0z"/></g></g><g filter="url(#j)"><g transform="translate(96)"><mask id="l" fill="#fff"><use xlink:href="#k"/></mask><path fill="#006AEB" fill-rule="nonzero" mask="url(#l)" d="M0 0h24v24H0z"/></g></g><g filter="url(#m)"><g transform="translate(128)"><mask id="o" fill="#fff"><use xlink:href="#n"/></mask><path fill="#006AEB" fill-rule="nonzero" mask="url(#o)" d="M0 0h24v24H0z"/></g></g></g></svg>