<svg xmlns="http://www.w3.org/2000/svg" data-color-count="1" width="152" height="24" viewBox="0 0 152 24" xmlns:xlink="http://www.w3.org/1999/xlink"><defs><filter color-interpolation-filters="auto" id="a"><feColorMatrix in="SourceGraphic" values="0 0 0 0 0.039216 0 0 0 0 0.501961 0 0 0 0 1.000000 0 0 0 1.000000 0"/></filter><filter color-interpolation-filters="auto" id="d"><feColorMatrix in="SourceGraphic" values="0 0 0 0 0.039216 0 0 0 0 0.501961 0 0 0 0 1.000000 0 0 0 1.000000 0"/></filter><filter color-interpolation-filters="auto" id="g"><feColorMatrix in="SourceGraphic" values="0 0 0 0 0.039216 0 0 0 0 0.501961 0 0 0 0 1.000000 0 0 0 1.000000 0"/></filter><filter color-interpolation-filters="auto" id="j"><feColorMatrix in="SourceGraphic" values="0 0 0 0 0.039216 0 0 0 0 0.501961 0 0 0 0 1.000000 0 0 0 1.000000 0"/></filter><filter color-interpolation-filters="auto" id="m"><feColorMatrix in="SourceGraphic" values="0 0 0 0 0.039216 0 0 0 0 0.501961 0 0 0 0 1.000000 0 0 0 1.000000 0"/></filter><path d="M12 20.465l-6.171 3.394c-.843.464-1.828-.285-1.667-1.267l1.179-7.19L.348 10.31c-.682-.695-.305-1.906.637-2.05l6.9-1.048L10.97.67a1.127 1.127 0 012.06 0l3.086 6.542 6.9 1.049c.941.143 1.318 1.354.636 2.05l-4.993 5.091 1.179 7.19c.16.982-.824 1.73-1.667 1.267L12 20.465z" id="b"/><path d="M12 20.465l-6.171 3.394c-.843.464-1.828-.285-1.667-1.267l1.179-7.19L.348 10.31c-.682-.695-.305-1.906.637-2.05l6.9-1.048L10.97.67a1.127 1.127 0 012.06 0l3.086 6.542 6.9 1.049c.941.143 1.318 1.354.636 2.05l-4.993 5.091 1.179 7.19c.16.982-.824 1.73-1.667 1.267L12 20.465z" id="e"/><path d="M12 20.465l-6.171 3.394c-.843.464-1.828-.285-1.667-1.267l1.179-7.19L.348 10.31c-.682-.695-.305-1.906.637-2.05l6.9-1.048L10.97.67a1.127 1.127 0 012.06 0l3.086 6.542 6.9 1.049c.941.143 1.318 1.354.636 2.05l-4.993 5.091 1.179 7.19c.16.982-.824 1.73-1.667 1.267L12 20.465zm-1.084-1.972a2.25 2.25 0 012.168 0l3.712 2.042.467.256-.083-.503-.741-4.522a2.25 2.25 0 01.614-1.939l3.246-3.31.335-.343a621579.504 621579.504 0 01-4.857-.738 2.25 2.25 0 01-1.696-1.265c-.826-1.75-1.446-3.063-1.858-3.939L12 3.761l-.221.469-1.86 3.941a2.25 2.25 0 01-1.696 1.265c-1.957.298-3.424.52-4.403.67l-.454.068.33.337 3.251 3.316a2.25 2.25 0 01.614 1.94l-.748 4.561-.076.463.407-.223 3.772-2.075z" id="h"/><path d="M12 20.465l-6.171 3.394c-.843.464-1.828-.285-1.667-1.267l1.179-7.19L.348 10.31c-.682-.695-.305-1.906.637-2.05l6.9-1.048L10.97.67a1.127 1.127 0 012.06 0l3.086 6.542 6.9 1.049c.941.143 1.318 1.354.636 2.05l-4.993 5.091 1.179 7.19c.16.982-.824 1.73-1.667 1.267L12 20.465zm-1.084-1.972a2.25 2.25 0 012.168 0l3.712 2.042.467.256-.083-.503-.741-4.522a2.25 2.25 0 01.614-1.939l3.246-3.31.335-.343a621579.504 621579.504 0 01-4.857-.738 2.25 2.25 0 01-1.696-1.265c-.826-1.75-1.446-3.063-1.858-3.939L12 3.761l-.221.469-1.86 3.941a2.25 2.25 0 01-1.696 1.265c-1.957.298-3.424.52-4.403.67l-.454.068.33.337 3.251 3.316a2.25 2.25 0 01.614 1.94l-.748 4.561-.076.463.407-.223 3.772-2.075z" id="k"/><path d="M12 20.465l-6.171 3.394c-.843.464-1.828-.285-1.667-1.267l1.179-7.19L.348 10.31c-.682-.695-.305-1.906.637-2.05l6.9-1.048L10.97.67a1.127 1.127 0 012.06 0l3.086 6.542 6.9 1.049c.941.143 1.318 1.354.636 2.05l-4.993 5.091 1.179 7.19c.16.982-.824 1.73-1.667 1.267L12 20.465zm-1.084-1.972a2.25 2.25 0 012.168 0l3.712 2.042.467.256-.083-.503-.741-4.522a2.25 2.25 0 01.614-1.939l3.246-3.31.335-.343a621579.504 621579.504 0 01-4.857-.738 2.25 2.25 0 01-1.696-1.265c-.826-1.75-1.446-3.063-1.858-3.939L12 3.761l-.221.469-1.86 3.941a2.25 2.25 0 01-1.696 1.265c-1.957.298-3.424.52-4.403.67l-.454.068.33.337 3.251 3.316a2.25 2.25 0 01.614 1.94l-.748 4.561-.076.463.407-.223 3.772-2.075z" id="n"/></defs><g fill="none" fill-rule="evenodd"><g filter="url(#a)"><mask id="c" fill="#fff"><use xlink:href="#b"/></mask><path fill="#006AEB" fill-rule="nonzero" mask="url(#c)" d="M0 0h24v24H0z"/></g><g filter="url(#d)"><g transform="translate(32)"><mask id="f" fill="#fff"><use xlink:href="#e"/></mask><path fill="#006AEB" fill-rule="nonzero" mask="url(#f)" d="M0 0h24v24H0z"/></g></g><g filter="url(#g)"><g transform="translate(128)"><mask id="i" fill="#fff"><use xlink:href="#h"/></mask><path fill="#FFF" fill-rule="nonzero" mask="url(#i)" d="M0 0h24v24H0z"/></g></g><g filter="url(#j)"><g transform="translate(96)"><mask id="l" fill="#fff"><use xlink:href="#k"/></mask><path fill="#FFF" fill-rule="nonzero" mask="url(#l)" d="M0 0h24v24H0z"/></g></g><g filter="url(#m)"><g transform="translate(64)"><mask id="o" fill="#fff"><use xlink:href="#n"/></mask><path fill="#FFF" fill-rule="nonzero" mask="url(#o)" d="M0 0h24v24H0z"/></g></g></g></svg>