<svg xmlns="http://www.w3.org/2000/svg" data-color-count="2" width="63" height="60" viewBox="0 0 63 60"><g fill="none" fill-rule="evenodd"><path d="M30.213 26.676C37.662 32.81 42.344 39.253 40.45 41.55a1.81 1.81 0 01-.749.531 9789.09 9789.09 0 01-19.406 9.366C7.614 57.482 1.075 60.31.261 59.67c-.881-.693 1.35-8.294 5.457-20.051 3.127-8.948 6.131-16.684 7.596-19.454a1.773 1.773 0 01.553-.903 1.57 1.57 0 01.08-.09v.026c2.25-1.71 9.155 1.619 16.266 7.477zm-15.569-6.382c-1.147 1.391 3.258 7.453 10.062 13.057 6.808 5.608 13.608 8.774 14.761 7.378 1.148-1.392-3.258-7.454-10.062-13.058-6.808-5.608-13.608-8.775-14.76-7.377z" fill="#B6CCDC" fill-rule="nonzero"/><path d="M25.505 28.222c.073-1.041.272-1.505.907-2.442.792-1.167 1.103-1.893 1.201-3.29.098-1.398-.11-2.16-.73-3.428-.5-1.02-.632-1.507-.559-2.55.073-1.044.272-1.508.908-2.448.791-1.168 1.102-1.894 1.2-3.293.098-1.398-.108-2.162-.729-3.43-.5-1.021-.632-1.51-.559-2.553a.855.855 0 00-.79-.915.853.853 0 00-.908.795c-.098 1.398.11 2.162.73 3.43.499 1.02.631 1.508.558 2.553-.073 1.043-.272 1.508-.908 2.447-.791 1.168-1.102 1.895-1.2 3.294-.098 1.398.11 2.16.73 3.428.5 1.02.631 1.507.559 2.55-.073 1.04-.272 1.505-.908 2.442-.792 1.167-1.103 1.893-1.2 3.29a.855.855 0 00.79.915.853.853 0 00.908-.795zm6.953 5.698c.033-.028.11-.094.23-.19.21-.167.464-.354.762-.558a21.238 21.238 0 013.082-1.732c6.633-3.068 15.078-3.682 25.29-.27a.85.85 0 001.077-.543.858.858 0 00-.54-1.083c-10.633-3.554-19.521-2.907-26.538.338a22.929 22.929 0 00-3.33 1.873c-.57.39-.96.7-1.17.89a.861.861 0 00-.065 1.21.847.847 0 001.202.066zm8.924-14.63c.158-.25.3-.416.428-.518.184-.145.332-.177.9-.196 1.196-.04 1.91-.19 2.976-.805.35-.202.66-.486 1.01-.892.108-.125.216-.257.36-.437l.345-.433c.688-.852 1.161-1.248 1.726-1.378.346-.08.732.032 1.938.534 1.167.486 1.83.685 2.64.684.702 0 1.131-.158 2.417-.749 1.097-.504 1.638-.66 2.172-.573a.852.852 0 00.978-.707.856.856 0 00-.703-.985c-.982-.162-1.755.062-3.154.706-1.024.47-1.36.593-1.713.594-.514 0-1.021-.152-1.986-.554-1.599-.666-2.12-.816-2.967-.621-1.04.239-1.758.84-2.669 1.967l-.352.441c-.13.165-.226.281-.318.387-.235.273-.418.44-.57.529-.781.45-1.243.548-2.187.579-.906.03-1.342.124-1.894.56-.294.233-.56.544-.815.949a.86.86 0 00.263 1.183.848.848 0 001.175-.265zM15.576 8.148c.096.031.292.111.555.245a6.51 6.51 0 011.312.883c1.39 1.21 2.101 2.867 1.795 5.136a.857.857 0 00.73.965.852.852 0 00.958-.735c.387-2.874-.564-5.092-2.37-6.663-.907-.789-1.813-1.25-2.45-1.46a.85.85 0 00-1.074.548.858.858 0 00.544 1.08z" fill="#05D4E1" fill-rule="nonzero"/><path d="M37.824 22.666a2.425 2.425 0 01-2.416 2.433 2.425 2.425 0 01-2.417-2.433 2.425 2.425 0 012.417-2.432 2.425 2.425 0 012.416 2.432m3.558-12.9a2.425 2.425 0 01-2.416 2.432 2.425 2.425 0 01-2.416-2.432 2.425 2.425 0 012.416-2.433 2.425 2.425 0 012.416 2.433m13.288 25.01a2.425 2.425 0 01-2.417 2.433 2.425 2.425 0 01-2.416-2.433 2.425 2.425 0 012.416-2.433 2.425 2.425 0 012.416 2.433M47.237 7.18L43.03 4.783l3.919-2.036zm1.893 15.336l4.383-2.046-.64 4.393zM17.957 4.22L20.361 0l1.999 3.958z" fill="#05D4E1"/></g></svg>