<svg xmlns="http://www.w3.org/2000/svg" data-color-count="4" width="36" height="36" viewBox="0 0 36 36" fill="none"><path d="M1.547 27h25.794c.855 0 1.547-.681 1.547-1.522V5.527c0-.84-.692-1.522-1.547-1.522H1.547C.693 4.005 0 4.686 0 5.527v19.951C0 26.318.693 27 1.547 27z" fill="#9CF"/><path d="M28.893 24.791V6.209c-.005-1.218-1.005-2.204-2.24-2.209H3.202c-1.235.003-2.237.99-2.24 2.209v18.582h27.932z" fill="#006AEB"/><path d="M3.34 23.536h23.2c.332 0 .6-.265.6-.591v-16.5a.596.596 0 00-.6-.59H3.34c-.331 0-.6.264-.6.59v16.5c0 .326.269.59.6.59z" fill="#FFF9C9"/><path d="M36 24.791H7.155c.006 1.218 1.005 2.204 2.24 2.209h24.37c1.234-.005 2.232-.992 2.235-2.209z" fill="#006AEB"/><path d="M7.15 24.791H.03c.002 1.208.985 2.19 2.21 2.209h7.15c-1.236-.003-2.237-.99-2.24-2.209zm10.527 0h7.801a.875.875 0 01-.268.718.902.902 0 01-.737.24h-5.65c-.82.015-1.146-.421-1.146-.958z" fill="#9CF"/><path d="M4.323 7.527a.54.54 0 01-.524-.55.54.54 0 01.55-.523.54.54 0 01.538.536.558.558 0 010 .13.543.543 0 01-.564.407zm1.802 0a.54.54 0 01-.544-.537.54.54 0 01.544-.537.54.54 0 01.545.537.553.553 0 010 .13.538.538 0 01-.545.407zm1.676 0a.544.544 0 01-.502-.332.531.531 0 01.118-.584.55.55 0 01.593-.117.537.537 0 01.335.496.378.378 0 010 .13.538.538 0 01-.544.407z" fill="#FEEA6F"/><path fill-rule="evenodd" clip-rule="evenodd" d="M15.744 17.21a.806.806 0 01-.815.796.806.806 0 01-.808-.802.806.806 0 01.811-.798.82.82 0 01.576.236.795.795 0 01.236.569zm3.09-3.43a6.196 6.196 0 00-7.773 0 .623.623 0 01-.806.033.56.56 0 01.15-.824 7.246 7.246 0 019.098 0 .564.564 0 01.155.824.628.628 0 01-.825-.033zm-1.842 1.72a3.625 3.625 0 00-4.153 0 .663.663 0 01-.821 0c-.21-.192-.131-.604.218-.848a4.662 4.662 0 015.344 0c.35.244.427.656.218.848a.658.658 0 01-.806 0z" fill="#04D4E0"/><path d="M18 36c8.284 0 15-.672 15-1.5S26.284 33 18 33c-8.284 0-15 .672-15 1.5S9.716 36 18 36z" fill="#9CF"/></svg>