<svg xmlns="http://www.w3.org/2000/svg" data-color-count="1" width="24" height="20" viewBox="0 0 24 20"><path d="M21.533 5.112c.015.213.015.426.015.64 0 6.502-4.949 13.994-13.995 13.994A13.9 13.9 0 010 17.538c.396.046.777.061 1.188.061 2.3 0 4.416-.777 6.106-2.101a4.928 4.928 0 01-4.599-3.412 6.2 6.2 0 00.93.076c.441 0 .883-.06 1.294-.167A4.92 4.92 0 01.975 7.168v-.061a4.953 4.953 0 002.223.624 4.915 4.915 0 01-2.193-4.096c0-.914.244-1.752.67-2.483A13.981 13.981 0 0011.817 6.3a5.553 5.553 0 01-.122-1.127 4.917 4.917 0 014.92-4.92 4.91 4.91 0 013.593 1.554A9.684 9.684 0 0023.33.62a4.906 4.906 0 01-2.163 2.711c.99-.107 1.95-.38 2.833-.761a10.573 10.573 0 01-2.467 2.543z" fill="#006AEB"/></svg>